<?xml version="1.0" encoding="utf-8"?>
<!-- Generator: Adobe Illustrator 22.1.0, SVG Export Plug-In . SVG Version: 6.00 Build 0)  -->
<svg version="1.1" id="Capa_1" xmlns="http://www.w3.org/2000/svg" xmlns:xlink="http://www.w3.org/1999/xlink" x="0px" y="0px"
	 viewBox="0 0 1200 1200" style="enable-background:new 0 0 1200 1200;" xml:space="preserve">
<style type="text/css">
	.st0{fill:#FFDA08;}
	.st1{fill:#FFC717;}
	.st2{fill:#FFFFFF;}
	.st3{fill:none;stroke:#050403;stroke-width:3;stroke-linecap:round;stroke-linejoin:round;stroke-miterlimit:10;}
	.st4{display:none;}
	.st5{display:inline;fill:none;stroke:#050403;stroke-width:3;stroke-linecap:round;stroke-linejoin:round;stroke-miterlimit:10;}
	.st6{fill:#336535;}
	.st7{font-family:'AvenirNext-Bold';}
	.st8{font-size:34px;}
	.st9{fill:none;stroke:#050403;stroke-width:1.5;stroke-linecap:round;stroke-linejoin:round;stroke-miterlimit:10;}
	.st10{fill:none;stroke:#FFFFFF;stroke-width:3;stroke-linecap:round;stroke-linejoin:round;stroke-miterlimit:10;}
</style>
<g>
	<circle class="st0" cx="636.1" cy="603.9" r="341.4"/>
	<path class="st1" d="M868.7,354c30,50.8,47.2,110,47.2,173.3c0,188.5-152.8,341.4-341.4,341.4c-89.9,0-171.6-34.7-232.5-91.5
		c59.4,100.6,168.9,168.1,294.2,168.1c188.5,0,341.4-152.8,341.4-341.4C977.5,505.2,935.6,416.3,868.7,354z"/>
	<polygon class="st2" points="475.2,520.5 978.1,520.5 978.1,433.9 517.4,433.9 	"/>
	<path class="st3" d="M613.9,300.2c188.5,0,341.4,152.8,341.4,341.4c0,188.5-152.8,341.4-341.4,341.4
		c-188.5,0-341.4-152.8-341.4-341.4"/>
	<g class="st4">
		<path class="st5" d="M357,643.2V368.1h-60.2v-40.2c60.2,0,73.6-21.1,85.7-45.3h52.4v140.6v220.1"/>
	</g>
	<polygon class="st3" points="611.1,327.8 560.2,298.3 611.1,268.9 	"/>
	<text transform="matrix(1 0 0 1 531.4414 507.25)" class="st6 st7 st8">EVALUACIÓN DE SISTEMAS</text>
	<g>
		<g>
			
				<ellipse transform="matrix(0.9998 -2.126885e-02 2.126885e-02 0.9998 -13.9694 13.5065)" class="st9" cx="628" cy="663.5" rx="109.4" ry="109.4"/>
			<ellipse transform="matrix(0.797 -0.6039 0.6039 0.797 -273.2372 513.899)" class="st9" cx="628" cy="663.5" rx="80" ry="80"/>
			<path class="st9" d="M597.7,613.5c22.6-13,54.6-5.8,69.5,15.6"/>
			<path class="st9" d="M675.8,643.8c3.5,6.6,4.9,14.4,3.9,21.8"/>
			<polygon class="st9" points="735.6,776.4 705.7,801 769.8,876.7 798.1,853.4 			"/>
			<line class="st9" x1="681.2" y1="762.3" x2="700.2" y2="784.3"/>
			<line class="st9" x1="702.1" y1="746.6" x2="721.1" y2="768.7"/>
		</g>
	</g>
	<path class="st10" d="M339.5,712.6c0,0,51.1,182.8,282.5,205.8"/>
</g>
</svg>
