<?xml version="1.0" encoding="utf-8"?>
<!-- Generator: Adobe Illustrator 22.1.0, SVG Export Plug-In . SVG Version: 6.00 Build 0)  -->
<svg version="1.1" id="Capa_1" xmlns="http://www.w3.org/2000/svg" xmlns:xlink="http://www.w3.org/1999/xlink" x="0px" y="0px"
	 viewBox="0 0 1200 1200" style="enable-background:new 0 0 1200 1200;" xml:space="preserve">
<style type="text/css">
	.st0{fill:#1D8DC6;stroke:#1D8DC6;stroke-width:0.3863;stroke-miterlimit:10;}
	.st1{fill:#EBE04D;}
	.st2{opacity:0.8;fill:#6B9C3C;}
	.st3{fill:#1D8DC6;}
	.st4{font-family:'Tahoma';}
	.st5{font-size:86px;}
	.st6{display:none;}
	.st7{display:inline;fill:#3F8D3F;}
	.st8{display:inline;fill:#1D8DC6;}
	.st9{display:inline;}
	.st10{fill-rule:evenodd;clip-rule:evenodd;fill:#3F8D3F;}
</style>
<path class="st0" d="M339.5,359.8V371L338,485.2l-1.4,244.4c1,0,6.6,0.2,8.2,0c49.4,0.2,86.5-45.9,86-95c0.2,0,0.3-6.7,0.2-17.2
	c51-1.3,95.3-35.7,94.9-81c0.2-1.5,0.3-6.5,0.3-7.4h-95.9l-1.4-80.7c36.7,0.3,70.7,0.4,70.8,0c52.5,0.3,98.9-34.7,98.5-81.1
	c0.2-1.5,0.3-6.5,0.3-7.4H339.5z"/>
<g>
	<path class="st1" d="M858.8,441.9c46.3-1.1,84-39.3,88.6-87.9l-88.6,0.1l-90.9,0.2c-46.4,0.9-84.3,38.7-88.8,87.5l91.6,0.4
		L858.8,441.9z"/>
	<path class="st1" d="M889.4,551.7l-89.8-0.2h0h0c0,35.3,23.6,66.9,57.5,81c8.8,3.6,18.2,6.2,28.2,7.5c0.4,0,0.8,0.1,1.2,0.1
		c0.1,0,0.2,0,0.3,0l-117.1-0.2l0.9-197.1H679v197c0,0.1,0,0.2,0,0.2c0,0.1,0,0.2,0,0.3c0,0.2,0,0.4,0,0.6c0,1.3,0,2.5,0.1,3.8
		c0.1,2.7,0.4,5.4,0.8,8.1c0.4,2.7,1,5.3,1.7,7.9c0.7,2.6,1.5,5.1,2.4,7.6c0.9,2.5,2,5,3.2,7.4c1.2,2.4,2.5,4.7,3.9,7
		c1.4,2.3,2.9,4.5,4.6,6.7c1.6,2.2,3.4,4.3,5.2,6.3c1.8,2,3.8,4,5.8,5.8c2,1.9,4.2,3.7,6.3,5.4c2.2,1.7,4.5,3.3,6.9,4.9
		c2.4,1.5,4.8,3,7.3,4.3c2.5,1.4,5.1,2.6,7.8,3.8c2.7,1.2,5.4,2.2,8.2,3.2c2.8,1,5.7,1.8,8.5,2.5c2.9,0.8,104.5,1.7,105.1,1.7h0.6
		c47.1-0.2,85.8-38.5,90.3-87.4h0.3v-88.1L889.4,551.7z"/>
</g>
<path class="st2" d="M748.3,357.8L748,358l-262.6,0.1l-1.5,286.4l0.3,14l1.7,73.1c43.4-0.4,79.7-31.4,90.1-73.1
	c1.3-5.1,2.6-27.6,2.6-27.6c1.3,0,2.6,0,4,0c106.4,0,192.7-81,192.7-180.9C775.2,416.4,765.4,384.8,748.3,357.8z M634.8,520.8
	c-5.9,4.8-11.8,9.5-17.1,14.9c-17.4,17.6-27,40.5-36.3,62.9c0.2-22.3,0.4-44.5,0.6-66.8c0.2-22.3,0.4-44.5,0.6-66.8
	c0-3.3,0.1-6.7,0.1-10c0-1.5-0.4-3.6,0-5c0.4-1.4,1.6-1.5,3.1-1.5c30.7-0.3,61.4-0.6,92.1-0.8c-2,19.7-8.9,39.4-22.5,54.7
	C649.3,509.2,642,515,634.8,520.8z"/>
<text transform="matrix(1.1474 0 0 1 892.0244 791.2734)" class="st3 st4 st5">®</text>
<g>
	<g class="st6">
		<path class="st7" d="M338.2,785.6V742h11.6c13.7,0,19.8,6.7,19.8,21.5c0,15.1-6.5,22.1-20,22.1H338.2z M342.2,782.1h7.6
			c10.4,0,15.7-4.5,15.7-18c0-13.7-5.6-18.5-16.1-18.5h-7.2V782.1z"/>
		<path class="st7" d="M374.3,785.6l15.3-43.6h6.7l15.3,43.6h-4.2l-4.7-13.4h-19.5l-4.7,13.4H374.3z M384.4,768.7h17.1l-5.9-16.9
			c-0.9-2.4-1.7-4.8-2.5-7.2h-0.3c-0.8,2.4-1.7,4.7-2.5,7.1L384.4,768.7z"/>
		<path class="st7" d="M418.5,785.6V742h6.2l17.3,30.4c1.7,2.9,3.4,5.9,5,8.8h0.5V742h3.7v43.6h-6.1L428,755.3c-1.7-3-3.4-6-5.1-9
			h-0.5v39.3H418.5z"/>
		<path class="st7" d="M464.3,785.6V742h4v43.6H464.3z M488.5,785.6l-18.1-21.5v-0.2l17-21.9h4.7l-17,22l18.6,21.6H488.5z"/>
	</g>
</g>
<g>
	<g class="st6">
		<path class="st8" d="M546.2,784.5c-12.4,0-17.9-8.6-17.9-22.1c0-14.4,6.6-22.7,18.6-22.7c6.5,0,10.1,1.9,11.7,3.2l-2.5,3
			c-2.1-1.5-5-2.6-9.7-2.6c-8.6,0-14,5.8-14,18.8c0,12.6,5,19,14.4,19c4.8,0,7.6-0.9,9.3-2.4l2.3,2.7
			C556.3,783,552.4,784.5,546.2,784.5z"/>
		<path class="st8" d="M583,784.5c-10.9,0-17.4-6.2-17.4-22.2c0-16.2,6.8-22.6,18-22.6c10.9,0,17.4,6.2,17.4,22.2
			C601,778,594.2,784.5,583,784.5z M583.4,780.9c8.3,0,13.5-4.4,13.5-18.7c0-14.4-5.3-19.1-13.7-19.1c-8.2,0-13.5,4.4-13.5,18.7
			C569.7,776.2,575.1,780.9,583.4,780.9z"/>
		<path class="st8" d="M611.8,783.9v-43.6h6.2l17.3,30.4c1.7,2.9,3.4,5.9,5,8.8h0.5v-39.3h3.7v43.6h-6.1l-17.2-30.3
			c-1.7-3-3.4-6-5.1-9h-0.5v39.3H611.8z"/>
		<path class="st8" d="M667.3,784.5c-6.5,0-11.1-2-14.1-4.4l2.5-3c2.7,2,6.4,3.8,11.9,3.8c6.9,0,10.7-3.5,10.7-8.1
			c0-10.6-22.3-8.1-22.3-21.8c0-6.5,5.8-11.4,13.8-11.4c4.5,0,8.5,1.1,11.4,3.2l-2.5,3c-2.7-1.9-5.6-2.7-9.1-2.7
			c-6,0-9.6,3.2-9.6,7.7c0,10.9,22.3,8.5,22.3,21.8C682.2,779.3,676.7,784.5,667.3,784.5z"/>
		<path class="st8" d="M707.7,784.5c-10.1,0-15.8-5.3-15.8-14.9v-29.4h4v28.9c0,8.2,5,11.8,12.3,11.8c7.2,0,11.9-3,11.9-11.3v-29.4
			h4v29C724,779,718.2,784.5,707.7,784.5z"/>
		<path class="st8" d="M736.8,783.9v-43.6h4v40.1h20.7v3.5H736.8z"/>
		<path class="st8" d="M776.1,783.9v-40.1h-12.7v-3.5h29.2v3.5h-12.6v40.1H776.1z"/>
		<path class="st8" d="M865.2,783.9v-43.6h10.7c9.5,0,15.3,3.5,15.3,12.1c0,7-5,11.3-10.7,11.8v0.2c1.7,0.7,3.4,2.1,5.5,5.3
			l8.9,14.1h-4.8l-8.6-13.9c-2-3.2-4.3-4.7-8-4.7h-4.4v18.6H865.2z M869.2,761.9h6.6c6.7,0,11.4-2.4,11.4-9c0-6.7-4.2-9.1-11.9-9.1
			h-6.1V761.9z"/>
		<path class="st8" d="M904.3,783.9v-43.6h23.9v3.5h-19.9V760h17.6v3.5h-17.6v16.9h20.9v3.5H904.3z"/>
		<path class="st8" d="M948.4,784.5c-6.5,0-11.1-2-14.1-4.4l2.5-3c2.7,2,6.4,3.8,11.9,3.8c6.9,0,10.7-3.5,10.7-8.1
			c0-10.6-22.3-8.1-22.3-21.8c0-6.5,5.8-11.4,13.8-11.4c4.5,0,8.5,1.1,11.4,3.2l-2.5,3c-2.7-1.9-5.6-2.7-9.1-2.7
			c-6,0-9.6,3.2-9.6,7.7c0,10.9,22.3,8.5,22.3,21.8C963.3,779.3,957.8,784.5,948.4,784.5z"/>
	</g>
</g>
<g id="XMLID_4067_" class="st6">
	<g class="st9">
		<g id="XMLID_1493_">
			<g id="XMLID_1704_">
				<path id="XMLID_1705_" class="st10" d="M817,793.3c-2.5-0.8-4-2.6-5.5-4.4c0.2-0.1,0.5-0.3,0.6-0.4c0.8,0.8,1.6,1.6,2.4,2.3l0,0
					c0.5,0.4,0.8,0.9,1.4,1.2c0.7,0.4,1.6,0.7,2.4,0.2c0.2-0.1,0.6-0.1,0.8-0.1l0,0c0.1,0.1,0.2,0.3,0.4,0.5c-0.7,0.3-1.3,0.5-2,0.8
					H817z"/>
			</g>
			<g id="XMLID_1702_">
				<path id="XMLID_1703_" class="st10" d="M825.1,791.4c0,0.2,0,0.5-0.1,0.6c-0.8,0.5-1.7,0.8-2.5,1.3h-0.7
					c-0.8-0.4-1.6-0.8-2.3-1.2c-0.1,0-0.2,0-0.3,0l0,0c-0.5-0.4-0.9-0.9-1.4-1.3c-0.7-0.5-0.8-0.7-0.3-1.2l0,0c0.1,0,0.3,0,0.4,0.1
					c0.9,0.7,1.7,1.4,2.6,2.1c0.9,0.7,2.6,0.8,3.4,0.1C824.2,791.5,824.6,791.3,825.1,791.4L825.1,791.4z"/>
			</g>
			<g id="XMLID_1700_">
				<path id="XMLID_1701_" class="st10" d="M852.9,760.8c-0.2,0.8-0.4,1.6-0.7,2.4c-0.2,0.5-0.4,0.9-0.6,1.3
					c-0.4,0.3-0.8,0.7-1.3,1.1c-0.1-0.2-0.3-0.4-0.4-0.5c0.5-0.6,1-1.2,1.3-1.8c0.8-1.5,1.1-3.1,0.2-4.6c-0.3-0.5,0.3-0.7,0.1-1l0,0
					c0.8,0.6,0.9,1.5,1.3,2.2V760.8z"/>
			</g>
			<g id="XMLID_1698_">
				<path id="XMLID_1699_" class="st10" d="M788.1,767.4c-0.3,0.3-0.6,0.2-0.8-0.1c-0.1-0.3-0.4-0.5-0.6-0.7v-1.5
					c0.4-0.4,0.7-0.8,1.1-1.2l0,0c1-0.4,2.1-0.8,3.2-1.3c0.1,1.1,0,1.9-0.4,2.7c-1-0.3-0.3-1-0.5-1.5c-0.5,0.1-1,0.1-1.3,0.6
					c-0.7,0-0.9,0.6-1.1,1c-0.1,0.2,0,0.7,0.2,1C788,766.8,788.2,767.1,788.1,767.4L788.1,767.4z"/>
			</g>
			<g id="XMLID_1696_">
				<path id="XMLID_1697_" class="st10" d="M788.1,757.1c0.5-0.4,1-0.8,1.6-1.2c0.1,0.2,0.3,0.4,0.4,0.6l0,0
					c-0.2,0.2-0.4,0.4-0.7,0.6c-0.2,0.2-0.4,0.5-0.7,0.7c-0.8,0.6-1.4,1.4-1.3,2.4c0.1,1.1,0.4,2.1,0.6,3.2c0.1,0,0.1,0,0.2,0
					c-0.1,0.2-0.3,0.3-0.4,0.5l0,0c-0.1-0.1-0.3-0.1-0.4-0.2c-0.2-0.4-0.4-0.9-0.7-1.4V759C787.2,758.4,787.6,757.7,788.1,757.1
					L788.1,757.1z"/>
			</g>
			<g id="XMLID_1694_">
				<path id="XMLID_1695_" class="st10" d="M807.9,781.5c-0.2-0.9-0.4-1.8-0.7-2.7c0-0.1-0.3-0.3-0.5-0.3c-0.4,0-0.8,0.1-1.2,0
					c-0.2-0.1-0.4-0.3-0.6-0.5c0.2-0.1,0.3-0.3,0.5-0.3c2-0.5,4-0.9,5.9-1.4c1.2-0.3,2-1,2.7-1.9c0.2-0.2,0.4-0.5,0.5-0.7
					c0.2-0.4,0.1-0.6-0.4-0.7c-1.2-0.1-2.2,0.3-3.2,0.9c-0.7,0.4-1.4,0.7-2.2,0.9c-1.3,0.5-2.6,1.1-3.7,2c-0.6,0.5-0.6,1-0.2,1.6
					c0.4,0.6,0.9,1.2,1.3,1.8c-0.9-0.2-1.7-0.4-2-1.3c-0.1-0.2-0.3-0.4-0.4-0.6l0,0c-0.2-1.3,0.3-2.3,1.5-3.1c0.4-0.2,0.6-0.7,0.9-1
					c0-0.1-0.1-0.2-0.1-0.2c-1.5,0.1-2.9,0.2-4.4,0.3c-0.3,0-0.6,0.1-0.8,0.3c-1,0.6-1.9,1.2-2.8,1.8c-0.9,0.5-2.3,0.3-3-0.4
					c-0.4-0.5-0.8-0.9-1.3-1.3c-0.5-0.4-0.3-0.7,0-1.1c0.5,0.5,1,1.1,1.5,1.6c0.1,0.1,0.3,0.2,0.4,0.3c0.9,0.3,2.3-0.1,2.8-0.8
					c0.5-0.7,1.1-1.3,2-1.4c0.9-0.2,1.8-0.3,2.7-0.4c1.5-0.2,2.9-0.4,4.4-0.6c1.2-0.2,2.2-0.7,2.8-1.6c0.3-0.4,0.6-0.6,1-0.7
					c0.2-0.1,0.5,0,0.7-0.1c0.3-0.1,0.6-0.3,0.8-0.6c0.2-0.3,0.4-0.6,0.6-1c0.2-0.3,0.5-0.7,0.5-1c0.1-0.9,0.6-1.4,1.1-2.1
					c0.4-0.6,0.9-1.2,1.2-1.9c0.5-1,0.4-2,0.4-3.1c0-1.4-1.4-2.8-2.8-3.1c-0.3-0.1-0.7-0.4-0.8-0.8c-0.1-0.5-0.2-0.9-0.6-1.3
					c-0.4-0.4-0.6-1-1.1-1.4c-1.3-1-2.9-1.3-4.4-1.8c-0.2,0-0.4,0.1-0.6,0.2c-0.5,0.5-1,1-1.5,1.5c0,0,0-0.1-0.1-0.1
					c0.1-0.4,0.2-0.8,0.3-1.1c-0.4,0-0.7-0.1-0.9-0.1c0-0.1,0-0.2-0.1-0.2c0.5-0.2,1-0.3,1.5-0.5c-0.8-0.2-1.6-0.4-2.4-0.6
					c0.2,0.9,0,1.3-0.7,1.8c-0.5,0.3-0.9,0.5-1.4,0.8c-0.4-1.5,1.1-1.8,1.9-2.5c-0.2,0-0.3-0.1-0.5-0.1c-0.5,0-1,0-1.4,0.2
					c-0.2,0.1-0.3,0.5-0.5,0.8c-0.2,0.4-0.5,0.8-0.7,1.2c-0.1,0-0.2,0-0.3,0c0-0.4,0-0.8,0.1-1.1c0.2-0.3,0.5-0.6,0.9-1
					c-0.6,0.1-1.2,0.2-1.7,0.3c-0.4,0.1-0.5,0.2-0.5,0.6c0,0.8-0.2,1.5-0.8,2.1c-0.3,0.3-0.6,0.8-1.1,0.8c0.1-0.6,0.1-1.1,0.2-1.6
					c0.2-0.5,0.5-1,0.8-1.5c-0.2,0.1-0.4,0.2-0.6,0.4c-0.8,0.5-1.6,1-2.4,1.5c-0.6,0.4-1.1,0.8-1.7,1.2c-0.1,0-0.3,0-0.4,0.1
					c-0.6,0.4-1.1,0.8-1.7,1.1c-0.1-0.1-0.2-0.3-0.4-0.4l0,0c0.1-0.2,0.2-0.5,0.4-0.6c0.8-0.5,1.7-1,2.5-1.5
					c0.8-0.5,1.6-1.1,2.5-1.7c0.9-0.6,1.8-1.3,3-1.3c0.2,0,0.4-0.2,0.7-0.2c1.8-0.5,3.6-0.8,5.5-0.4c0.1,0,0.3,0,0.6,0
					c-0.5-0.8-0.9-1.6-1.4-2.3c0.8-0.3,1.2-0.1,1.4,0.4c0.8,1.4,2.2,1.7,3.7,1.9c1.2,0.2,2.4,0.4,2.9,1.6c0.1,0.2,0.5,0.3,0.7,0.5
					c0.6,0.3,1.3,0.6,2,0.9c0.2-1-0.4-1.7-1-2.3c-0.7-0.7-1.3-1.4-2.3-1.7c-0.9-0.3-1.9-0.6-2.8-0.8c-0.2-0.1-0.4-0.1-0.6-0.2
					c-1.6-0.6-3.2-0.6-4.9-0.5c0,0-0.1,0.1-0.1,0.1c0.2,1.4-0.9,2.8-2.5,1.9c1.2-0.2,1-1.4,1.9-1.9c-0.4,0-0.6,0-0.9,0v-0.9
					c0,0,0,0,0,0c0.7,0,1.3-0.1,2-0.1c0.8,0,1.5,0.1,2.3,0.1c0.5,0,0.9-0.1,1.1-0.7c0.1-0.5,0.4-1,0.5-1.5l0,0c0.2,0,0.4,0,0.8-0.1
					c-0.1,0.3-0.1,0.6-0.2,0.8c-0.4,1.1-0.2,1.5,0.9,1.7c0.8,0.2,1.6,0.2,2.4,0.1c1.1,0,1.6-0.8,2-1.7c0.4-0.8,0.8-1.6,1.2-2.4
					c0.8-1.3,1.6-2.5,2.8-3.5c0.3-0.3,0.5-0.7,0.8-0.9c0.1-0.1,0.4-0.2,0.6-0.3l0,0c0.1,0.2,0.2,0.4,0.3,0.6
					c-0.5,0.5-1.1,1.1-1.6,1.6c0.6-0.1,1.1-0.3,1.7-0.3c0.6,0,1.1,0.3,1.8,0.5c-0.6,0.4-1.1,0.8-1.7,1c-0.3,0.1-0.9-0.3-1.2-0.5
					c-0.6-0.5-0.7-0.5-1.2,0.1c-0.6,0.9-1.3,1.8-1.9,2.8c-0.3,0.5-0.1,1.1-0.2,1.7c-0.2,0.9,0.2,1.6,0.7,2.3
					c0.4,0.5,0.8,0.8,1.3,1.2c0.6,0.6,1.3,1.2,2,1.8c0.3,0.2,0.6,0.4,0.9,0.7c0.5,0.3,0.8,0,1.1-0.3c0.5-0.5,1-1.1,1.5-1.6
					c0.3-0.4,0.6-0.7,1-1.1c-0.3-0.5-0.9-1-0.5-1.8c0.3,0.5,0.6,0.9,1,1.3c0.6-1.2,0.7-2.4,0.2-3.6c-0.3-0.8-0.7-1.5-1.1-2.2
					c-0.1-0.1-0.1-0.2-0.2-0.3c-0.5-0.6-0.5-0.6,0.2-1.1c0.9,1.5,1.9,3,2.8,4.5c1,1.5,2.7,2,4.4,1.7c0.7-0.1,1-0.7,0.8-1.7
					c-0.1-0.6-0.4-1.2-0.6-1.7l0,0c0-0.2,0-0.5-0.1-0.7c-0.1-0.1-0.3-0.3-0.4-0.3c-1,0.2-1.6-0.3-2-1.1c0-0.1-0.1-0.2-0.1-0.2
					c0.4,0.1,0.9,0.2,1.4,0.4c0.3,0.1,0.6,0.3,0.9,0.5c-0.1-0.5-0.2-1-0.4-1.6c0.2,0.2,0.4,0.4,0.5,0.6c0.2,0.3,0.4,0.6,0.7,0.9
					c0.2,0.7,0.4,1.5,0.7,2.2l0,0c0.1,0.6,0.1,1.2,0.3,1.8c0.1,0.4,0.4,0.8,1,0.7c0.3,0,0.5,0,0.8,0c0.1,0.5,0.1,0.9-0.6,0.9
					c-0.2,0-0.4,0.1-0.6,0.2c-0.8,0.2-1.6,0.5-2.4,0.7c-1.4,0.4-2.8,0.7-3.9,1.7c-0.3,0.3-0.6,0.5-0.8,0.7c-0.4,0.4-0.8,0.7-1.1,1.1
					c0,0.1,0.1,0.1,0.1,0.2c1.2-0.3,2.5-0.4,3.7-0.9c1.5-0.6,2.9-1.4,4.4-2.1c1.1-0.6,1.4-1.6,1.5-2.6c0-0.3-0.1-0.5-0.5-0.5
					c-1-0.1-1.3-0.4-1.4-1.3c0.5,0.3,1,0.5,1.6,0.9c-0.2-0.4-0.4-0.6-0.5-0.9h0.4l0,0c1,0.4,1.5,1.3,1.3,2.5l0,0
					c-0.4,1.1-0.8,2.2-1.8,3c-0.2,0.2-0.2,0.5-0.4,0.9c0.8-0.1,1.5-0.1,2.1-0.3c1.7-0.5,3.4-0.4,5.1-0.3c1.3,0.1,2.6,0.4,3.7,1.4
					c0.7,0.6,1.5,0.9,2.3,1.4c0.2,0.1,0.2,0.3,0.3,0.5l0,0c-0.1,0.1-0.2,0.2-0.5,0.4c-1-0.7-2-1.4-3.1-2.1c-0.9-0.5-1.8-0.7-2.8-0.2
					c0.3,0.1,0.6,0.2,0.9,0.2c1.2,0,1.9,1,1.4,2.1c-0.1,0.1-0.1,0.2-0.2,0.5c-0.2-0.8-0.7-1.2-1.4-1.4c-0.1,0-0.2-0.2-0.2-0.3
					c-0.3-1-0.9-1.3-2-1c-0.4,0.1-0.9,0.1-1.4,0.2c0.7,0.2,1.3,0.4,2.1,0.6c-1,0.6-1.7,0.4-2.3-0.4c-0.1-0.1-0.3-0.2-0.4-0.2
					c-0.7,0.1-1.5,0.3-2.2,0.4c-0.5,0.1-1,0.1-1.6,0.2c0.3,0.3,0.6,0.5,0.9,0.7c0.4,0.3,0.8,0.4,1.1,0.7c0.4,0.4,0.8,0.9,1.1,1.4
					c-0.9,0.2-2.6-0.4-3.1-1.6c-0.4,0.8-0.8,1.5-1.9,1.3c0.1-0.2,0.3-0.5,0.5-0.7c0.2-0.2,0.4-0.4,0.6-0.5c0.5-0.3,0.8-0.6,0.7-1.3
					c-0.4,0.1-0.9,0.1-1.2,0.2c-1,0.4-2,0.9-2.9,1.5c-0.6,0.4-1.5,0.5-2.2,0.8c-0.4,0.2-0.9,0.4-1,0.7c-0.2,0.4,0,0.8,0.4,1.2
					c0.3,0.2,0.2,0.8,0.3,1.2c0,0.2-0.1,0.3-0.2,0.5c-0.4,0.7,0.1,1.2,0.2,1.8c0,0.2,0,0.4-0.1,0.6c-0.5,0.9-1.1,1.7-1.5,2.6
					c-0.5,1-0.9,1.9-1.2,2.9c-0.1,0.5,0.1,1.1,0.3,1.6c0,0.1,0.1,0.1,0.2,0.1c1.1,0,1.6,0.9,2.4,1.4c0.1,0,0.1,0.1,0.2,0.1
					c0.7,0.1,1.1,0.6,1.5,1.1c0.2,0.3,0.4,0.5,0.7,0.7c1.9,0.9,3.7,1.9,5.8,2.3c1.3,0.2,2.5,0.4,3.8,0.5c1.4,0.1,2.8,0.1,4.2,0.1
					c1.3,0,2.4-0.3,3.3-1.1c0.3-0.3,0.7-0.5,1-0.7l0,0c0.4-0.2,0.8-0.4,1.2-0.6c0.4,0.6,0.3,0.7-0.3,1.1c-0.3,0.2-0.6,0.5-0.9,0.7
					c-0.2,0.1-0.5,0.2-0.7,0.3c-0.6,0.3-1.1,0.7-1.7,0.9c-1.8,0.4-3.5,0.3-5.3,0.2c-1.7-0.1-3.3-0.2-5-0.3c0.5,0.9,0.9,1.7,1.4,2.5
					c-0.8,0.3-1.1,0-1.3-0.6c-0.1-0.6-0.6-0.9-1.2-1.2c-0.8-0.3-1.5-0.7-2.3-1c-0.9-0.3-1.8-0.6-2.7-0.9c-0.9-0.3-1.7-0.6-2.4-1.1
					c-0.4-0.3-0.7-0.9-1.4-0.7c-0.1,0.6,0.1,1.1,0.5,1.6c0.9,1.1,1.9,1.9,3.3,2.3c1.2,0.3,2.5,0.7,3.7,1.1c1,0.4,2.1,0.6,3.2,0.6
					c1,0,2-0.1,3.1-0.2c-0.2,0.7-0.2,0.7-1,0.8c-0.1,0-0.2,0.1-0.2,0.1c-0.9,0-1.8,0.2-2.6,0.1c-1.2-0.2-1.5-0.1-1.8,1
					c0,0.1,0,0.2-0.1,0.2c-0.1,0.6-0.4,0.8-1,0.8c0.1-0.5,0.3-1,0.3-1.5c0.1-0.3,0.1-0.7-0.4-0.8c-1.1-0.1-2.3-0.1-3.4-0.1
					c-0.5,0-1.1,0-1.4,0.5c-0.3,0.5-0.5,1-0.8,1.6c-0.5,1-1,2-1.6,3c-0.3,0.5-0.7,1-1.1,1.6c-0.2,0.1-0.5,0.2-0.6,0.4
					c-0.5,0.5-0.9,1.1-1.4,1.6c-0.3-0.2-0.5-0.3-0.7-0.5c0.5-0.6,1.1-1.2,1.6-1.8l0,0c0.2-0.2,0.4-0.4,0.6-0.6
					c1.2-1.1,1.9-2.4,2.3-3.9c0.2-0.8-0.1-1.7-0.6-2.3c-1.2-1.3-2.6-2.6-3.8-3.9c-0.5-0.5-0.9-0.6-1.5-0.1c-1,0.9-2,1.9-3,2.9
					c-0.7,0.8-1.2,1.7-0.7,2.7c0.5,1.1,1.1,2.2,1.7,3.3c0.3,0.5,0.6,0.9,1,1.4c-0.2,0.2-0.4,0.3-0.6,0.5c-0.2-0.3-0.5-0.5-0.6-0.7
					c-0.6-0.9-1.1-1.9-1.6-2.8c-0.5-0.9-0.9-1.9-1.9-2.5c-1-0.6-2.1-0.7-3.3-0.5c-0.7,0.1-1.1,0.6-1,1.1c0.1,0.4,0.2,0.9,0.4,1.3
					c0.3,1.2,0.6,2.4,0.9,3.8c-0.2-0.1-0.3-0.2-0.3-0.3l0,0C808.8,783.3,808.4,782.4,807.9,781.5L807.9,781.5z"/>
			</g>
			<g id="XMLID_1692_">
				<path id="XMLID_1693_" class="st10" d="M841.6,741.4c0.1,0.4,0,0.4-0.4,0.4c-0.5,0-1.1,0-1.6,0.2c-0.9,0.4-1.2,1.2-1.2,2.2
					c0.4-0.9,1.2-1.3,2.2-1.5c0.3-0.1,0.6-0.3,0.9-0.5c-0.1,0.8-0.5,1.4-1.1,1.9c-0.6,0.5-1.4,0.7-2.2,1.1c1.4,0.2,2.7,0.5,4,0.7
					c0.4,0.1,0.5,0,0.8-0.3c0.6-0.8,1.4-1,2.3-0.6c0.2,0.1,0.3,0.3,0.5,0.4c-1,0.3-1.8,0.5-2.7,0.7h3.3c-0.3-0.5-0.5-1-0.8-1.4
					c-0.1-0.2-0.5-0.2-0.7-0.2c-1.4,0.1-1.8-0.3-1.8-1.6c0.7,0.5,1.3,1,2,1.5c0.1-0.1,0.1-0.1,0.2-0.2c-0.7-0.6-1.3-1.2-2-1.8
					c0,0-0.1,0.1-0.1,0.1c0-0.3-0.1-0.6-0.1-0.9c1.3,0.4,3,1.7,4.4,5c-0.4,0.2-0.9,0.4-1.3,0.6c0.6,0.1,1.3,0.2,1.9,0.4
					c-0.5,0.9-1.6,0.6-2.3-0.1c-0.1-0.1-0.2-0.2-0.3-0.2c-1.5-0.2-3-0.3-4.5-0.5c-0.7-0.1-1.4-0.2-2-0.4c-0.2,0-0.3-0.3-0.4-0.5v1.2
					c0.6,0.1,1.2,0.1,1.8,0.2c-0.2,0.2-0.3,0.5-0.5,0.7l0,0c-0.9-0.1-1.7-0.2-2.6-0.3c-0.2,0-0.4,0.1-0.7,0.2l0,0
					c-0.5-0.1-1-0.2-1.4-0.2c0,0,0,0,0,0c0.1-0.2,0.2-0.4,0.3-0.7h2.5c-0.1-0.3-0.4-0.6-0.4-0.8c0-1,0.1-2,0.3-3
					c0-0.2,0.2-0.3,0.3-0.5c0.1-0.1,0.2-0.2,0.2-0.3c0.1-0.7,0.2-1.4,0.1-2.1c0-0.4-0.4-0.7-0.6-1.1c0.6,0.2,1.2,0.4,1.5,1
					c0.3,0.7-0.2,1.1-0.5,1.5c0.8-0.2,1.6-0.3,2.4-0.5C841.3,741.1,841.5,741.3,841.6,741.4L841.6,741.4z"/>
			</g>
			<g id="XMLID_1690_">
				<path id="XMLID_1691_" class="st10" d="M797.3,745.8c0.1,0.3,0.1,0.5,0.2,0.8c-1,0.1-2.1,0.2-3.2,0.3c-0.2,0-0.4,0.2-0.6,0.3
					c-0.6,0.5-1.5,0.7-2,0.4c-0.2-0.1-0.4-0.2-0.6-0.2c1-0.2,1.6-0.3,2.3-0.5c0,0,0,0,0-0.1c-0.1,0-0.2,0-0.3,0
					c-1.1-0.2-1.2-0.4-0.7-1.3c0.6-1.1,1.3-2.2,2.3-3.1c1.2-1,2.5-1.6,4.1-1.5c0.6,0,1.2,0.3,1.9,0.4c-0.8-0.5-1-1.1-0.7-1.7
					c0.3-0.4,0.8-0.7,1.4-0.9c-0.5,0.8-0.4,1.5-0.3,2.4c0.2,1,0.8,1.9,0.8,2.9c0,0.3-0.1,0.6-0.4,0.7l0,0c-1.6,0.1-3.8-1.7-3.5-2.7
					c0.3,0.1,0.6,0.4,0.9,0.4c0.9,0.2,1.7,0.5,1.8,1.5c0,0.2,0.2,0.3,0.3,0.4c0-0.3,0-0.5,0-0.7c-0.4-1.6-0.9-2.1-2.6-2.2
					c-1.6,0-2.8,0.9-3.8,1.9c0,0.1,0.1,0.1,0.1,0.2c0.5-0.3,1-0.7,1.4-1c0.1,0.8-0.3,1.7-1.4,1.5c-0.7-0.1-1,0.2-1.3,0.7
					c-0.2,0.3-0.3,0.6-0.4,0.9h3.5c-1.1-0.3-2-0.5-3-0.7c0.3-0.2,0.5-0.4,0.8-0.5c1.2-0.3,1.4,0,2.2,0.8
					C796.9,745.9,797,746,797.3,745.8L797.3,745.8z"/>
			</g>
			<g id="XMLID_1688_">
				<path id="XMLID_1689_" class="st10" d="M830.4,734.3c0-0.5,0.4-0.3,0.6-0.3c0.8,0.1,1.7,0.3,2.4,0.6c0.8,0.3,1.5,0.8,2.3,1.3
					c0.9,0.6,1.3,1.5,1.6,2.5c0.3,1.3,0.2,2.6-0.3,3.8c-0.1,0.4-0.9,0.8-1.4,0.9c0.4,0.4,0.7,0.9,1.1,1.3c-0.8,0.1-1.6-0.3-1.9-1
					c-0.1-0.4-0.4-0.7-0.9-0.9c-0.6-0.2-1.6-1.8-1.5-2.3c0.2-1,0.7-1.7,1.8-2c0.3-0.1,0.6-0.2,0.9-0.3c0.8-0.2,0.9-0.2,1.2,0.6
					c-0.5,0.1-1.1,0.2-1.6,0.3c-1,0.2-1.5,1.2-1,2c0.1-0.4,0.1-0.8,0.3-1.1c0.2-0.3,0.7-0.4,1.2-0.6c-0.4,0.7-0.9,1.3-1.4,2.1
					c0.4,0.3,0.9,0.7,1.5,0.9c0.6,0.3,1.1-0.1,1.2-0.7c0.1-0.6,0.2-1.1,0.3-1.7c0-0.2-0.1-0.3-0.1-0.6c-0.1,0.2-0.1,0.2-0.1,0.2
					c0.1,0.6,0,1.2-0.8,1.5c-0.3,0.1-0.6,0.5-0.8,0.8c-0.6-0.5-0.3-1.7,0.5-2.2c0.1-0.1,0.3-0.2,0.4-0.2c0.8-0.2,0.7-0.7,0.6-1.2
					c-0.1-0.5-1-1.5-1.6-1.8c0.3,0.4,0.5,0.7,0.7,1.1c-1.3,0.2-1.6-0.1-1.6-1.3c0-0.6-0.5-1-1.3-1.1c-0.5-0.1-1-0.1-1.5-0.3
					C830.8,734.7,830.6,734.4,830.4,734.3L830.4,734.3z"/>
			</g>
			<g id="XMLID_1686_">
				<path id="XMLID_1687_" class="st10" d="M804.4,739c1,0.7,1,0.7,1.4,1.8c0.4-0.9,0.2-1.8-1.3-2.1c-2.3-0.5-4.4,0-6.2,1.5
					c-0.4,0.3-0.8,0.6-1.3,0.8c0.3-1,0.6-1.6,2.4-2.5c1.9-0.9,4-1.2,6-0.3c1.4,0.6,1.8,2.1,0.8,3.5c-0.4,0.5-1,0.8-1.6,1.3
					c0,0.8-0.7,1.4-2.1,1.4c0.4-0.4,0.7-0.9,1.1-1.3c-0.6,0.1-0.9-0.3-1.2-0.7c-0.8-1.1-0.5-2.3-0.5-3.5c0.5-0.1,0.7-0.1,1,0.3
					c0.2,0.3,0.8,0.4,1.1,0.6c0.6,0.4,0.8,0.9,0.6,1.6c0,0.1-0.1,0.3-0.1,0.5c-0.3-1-1.9-1.1-1.7-2.4c-0.2,0.9,0,1.8,0.5,2.6
					c0.1,0.1,0.2,0.2,0.3,0.2c0.4,0.1,1.6-0.6,1.8-0.9c0.2-0.3,0.1-0.5-0.1-0.7c-0.4-0.4-0.6-0.9-0.9-1.4
					C804.3,739.2,804.4,739.1,804.4,739"/>
			</g>
			<g id="XMLID_1684_">
				<path id="XMLID_1685_" class="st10" d="M813.9,738.7c0.3,0.3,0.5,0.5,0.8,0.8c0.8,0.6,0.8,2.4,0.1,2.9c-0.3,0.2-0.5,0.5-0.8,0.7
					c0.1-1.2,0.2-2.4,0.3-3.6c-0.4,0.6-0.8,1.1-1.2,1.7c-0.1,0.1,0,0.3,0.1,0.4c0.4,0.5,0.6,1,0.6,1.7c0,0.2,0.1,0.5,0.2,0.7
					c-0.9-0.2-1.2-0.7-1.4-2.1c-0.4,0.7-0.8,1.3-1.2,2c-0.3,0.5-0.8,1-0.6,1.6c0.8,0.2,1.3-0.3,1.7-0.9c-0.2-0.1-0.5-0.2-0.7-0.3
					c-0.2-0.1-0.4-0.3-0.5-0.4c0.2-0.1,0.4-0.2,0.6-0.4c-0.1,0,0,0,0,0c1.2,0.6,1.5,0.9,1.1,1.7c-0.3,0.7-1.4,1.2-2.4,1
					c-0.8-0.2-1.1-0.6-0.8-1.3c0.6-1.5,1.5-2.9,2.5-4.2c0.3-0.4,0.6-0.8,1-1.3c-0.8,0.1-1,0.7-1.4,1.1c-0.5,0.6-1.7,0.9-2.3,0.6
					c0.3-0.4,0.7-0.9,1-1.3c0.3-0.5,1.4-1,1.9-0.8C812.9,739,813.4,739,813.9,738.7L813.9,738.7z"/>
			</g>
			<g id="XMLID_1682_">
				<path id="XMLID_1683_" class="st10" d="M828.6,742.9c-0.4,0.1-0.6,0.1-0.8,0.2c-0.3-0.5-0.7-1-1.1-1.6c0.1,1,0.6,1.1-1.2,2.5
					c0.4-0.8-0.2-1.7,0.7-2.4c0.1-0.1,0.1-0.5,0-0.7c-0.3-0.5-0.7-1-1.1-1.5c-0.4,0.4-0.1,0.8,0.1,1.1c0.2,0.5,0.4,1,0.1,1.5
					c-0.2,0.3,0,0.7-0.1,1.2c-0.3-0.5-0.7-0.9-1-1.4c-0.5-1-0.1-1.8,0.7-2.5c0.1-0.1,0-0.3,0-0.4c-0.5-0.6-1.1-1.3-1.6-1.9
					c-0.2-0.2-0.4-0.5-0.6-0.7c0.2-0.2,0.4-0.3,0.7-0.5c0.8,1,1.6,2,2.5,3c0.1,0.1,0.4,0.2,0.5,0.1c1.1-0.5,2.4,0.2,2.8,1.1
					c0.1,0.3,0.4,0.5,0.7,0.9c-1.7,0.4-2.5-0.8-3.3-1.7c0,0-0.1,0.1-0.1,0.1C827.1,740.6,827.8,741.7,828.6,742.9"/>
			</g>
			<g id="XMLID_1680_">
				<path id="XMLID_1681_" class="st10" d="M819.2,743.6c-0.3-0.4-0.5-0.9-0.8-1.2c-0.2-0.2-0.6-0.4-0.8-0.6
					c0.3,0.6,0.3,1.3-0.3,1.9c-0.5,0.5-1.1,1-1.8,1.6c0.3-1.1,0.8-2,1.4-2.9c0.2-0.2,0.3-0.5,0.4-0.7c0.2-0.3,0.3-0.6,0.5-1.1
					c0.8,0.8,1.4,1.4,2,2.1l0,0c0.3,0.5,0.6,0.9,0.9,1.4c0.5,0.8,1,1.5,1.4,2.4c0.6,1.3,0,3.2-1.2,3.9c-0.1-0.6-0.3-1.2-0.4-1.8
					c-0.1-0.6-0.1-1.2-0.1-1.8c-0.1,0.1-0.2,0.3-0.3,0.4c0,0-0.1,0-0.1,0c0.1-0.3,0.1-0.7,0.3-1c0.5-0.6,0.2-1-0.2-1.5
					c-0.2-0.3-0.4-0.6-0.6-0.9C819.4,743.8,819.3,743.7,819.2,743.6L819.2,743.6z"/>
			</g>
			<g id="XMLID_1678_">
				<path id="XMLID_1679_" class="st10" d="M819.1,743.6c0.6,0.8-0.1,1.3-0.5,1.8c-0.2,0.3-0.3,0.5,0.1,0.6c1.3,0.2,1.1,1.1,1,1.9
					c-0.4-0.3-0.8-0.5-1.2-0.8c-0.1,0.1-0.1,0.1-0.2,0.2c1.7,0.8,1.7,2.2,1.9,3.7c-0.4-0.3-0.8-0.5-1.1-0.8c-0.5-0.5-1-1.1-1.5-1.6
					c-0.8-0.9-0.5-1.8-0.2-2.7c0.2-0.5,0.5-1,0.7-1.5c-0.4,0-0.6,0.2-1.1,1.5c-0.2,0.6-1.1,1-0.4,2c-0.9-0.5-1.2-1.1-1-1.8
					c0.1-0.7,0.5-1.3,1.3-1.6C817.7,744.2,818.4,743.9,819.1,743.6L819.1,743.6"/>
			</g>
			<g id="XMLID_1676_">
				<path id="XMLID_1677_" class="st10" d="M821.1,738.6c-0.1-0.4,0.1-0.5,0.5-0.6c1.5-0.3,2.1-0.1,3,1.2c-0.7,0.5-1.4,1-2,1.5
					c-0.8,0.6-0.8,1.2,0,1.9c0.5,0.5,0.9,1.1,1.1,1.8c0.1,0.7-0.2,1.2-0.5,1.5c-0.4-0.4-0.7-0.8-1.1-1.1c-1.1-0.7-1.2-1.7-0.5-3
					c-0.4,0.4-0.8,0.9-1.2,1.3c-0.2-0.1-0.4-0.3-0.6-0.4l0,0c0.4-0.5,0.8-1,1.2-1.5c0.4-0.4,0.8-0.9,1.2-1.3l0,0
					c0.6-0.4,1.1-0.8,1.7-1.2c0-0.1-0.1-0.1-0.1-0.2C822.9,738.7,822,739.1,821.1,738.6L821.1,738.6z"/>
			</g>
			<g id="XMLID_1674_">
				<path id="XMLID_1675_" class="st10" d="M848.2,751c0.2-0.4,0.5-0.7,0.6-1.1c0-0.1-0.1-0.4-0.3-0.4c-1.2-0.3-2.4-0.7-3.6-1
					c-0.8-0.2-1.6-0.3-2.5-0.5c-0.1,0-0.3,0-0.4,0c1.4,0.6,0.9,2.1,1.7,3c-1-0.1-1.9-0.3-2.2-1.3c-0.1-0.4,0-0.9-0.1-1.3
					c0-0.2-0.2-0.4-0.4-0.6c0.1-0.4,0.3-0.6,0.8-0.5c1.2,0.2,2.4,0.4,3.6,0.6c1,0.2,1.9,0.4,2.9,0.7c1,0.2,1.4,1.2,1,2.2
					c-0.2,0.4-0.4,0.8-0.6,1.2c-0.2,0.4-0.6,0.3-1,0.2l0,0c0-0.2,0-0.3,0.1-0.5C848,751.5,848.1,751.2,848.2,751L848.2,751z"/>
			</g>
			<g id="XMLID_1672_">
				<path id="XMLID_1673_" class="st10" d="M790.6,750.4c-0.2,0-0.5,0.1-0.7,0.1c-0.4-0.8-0.1-1.7,0.8-1.9c2-0.5,4.1-0.9,6.2-1.4
					c1.2-0.2,2.4-0.4,3.7-0.6c0,0.3,0,0.6,0,0.8l0,0c-0.8,0.2-1.5,0.4-2.3,0.4c-0.6,0.1-0.7,0.3-0.6,0.8c0.1,1.3-0.2,1.8-1.5,2.2
					c-0.1,0-0.1,0.1-0.1,0.1c0.1-0.6,0.2-1.3,0.4-2c0.1-0.3,0.4-0.6,0.7-1c-0.7,0.2-1.4,0.3-2.1,0.5c-1.1,0.3-2.3,0.5-3.4,0.8
					C790.9,749.3,790.6,749.7,790.6,750.4L790.6,750.4z"/>
			</g>
			<g id="XMLID_1670_">
				<path id="XMLID_1671_" class="st10" d="M811,736.2c-0.3-0.1-0.6-0.3-0.7-0.4c0.1-0.2,0.2-0.4,0.3-0.6c-1.9-0.6-3.7-0.4-5.3,0.6
					c0.2,1.4-0.1,1.7-1.6,1.7c0.3-0.4,0.6-0.8,0.9-1.2c-0.9,0.3-1,1.5-2.1,1.2c0.2-0.8,0.8-1.3,1.4-1.8c1.2-0.9,2.5-1.4,3.9-1.7
					c0.9-0.2,1.7,0,2.5,0.2c0,0,0.1,0,0.1,0.1C811.5,734.7,811.6,735.1,811,736.2"/>
			</g>
			<g id="XMLID_1668_">
				<path id="XMLID_1669_" class="st10" d="M841.6,741.4c0.2-0.7-0.4-1-0.8-1.4c-0.8-0.7-1.7-1.2-2.8-1.3c-0.3,0-0.5-0.5-0.7-0.9
					c1.4,0.2,2.7,0.4,3.8,1.3c0.5,0.5,1,0.9,1.3,1.5c0.7,1.1,0.5,2.3,0.1,3.5c0,0.2-0.1,0.3-0.1,0.5c-0.1,0.9-0.3,1-1.2,0.7
					c0.1-0.4,0.3-0.7,0.4-1.1c-1.1,1-1.3,1.1-2,0.8c0.2-0.3,0.5-0.6,0.8-0.8c0.3-0.2,0.6-0.4,1-0.6c0.1-0.1,0.3-0.1,0.3-0.2
					C841.8,742.9,842,742.1,841.6,741.4C841.6,741.4,841.6,741.4,841.6,741.4"/>
			</g>
			<g id="XMLID_1666_">
				<path id="XMLID_1667_" class="st10" d="M813.7,734.5c-1-0.7-2.1-0.8-3.3-0.5c-0.3,0.1-0.6-0.1-0.9-0.2c0.6-0.7,1.8-1,2.8-0.8
					c1.2,0.3,2.2,0.7,3.2,1.4c0.1,0.1,0.3,0.1,0.4,0.1c0-1.1,1.1-1,1.7-1.5c0.2,0.7-0.4,1-0.7,1.5c-0.2,0.3-0.3,0.6-0.4,0.9l0,0
					c-0.6,0.4-1.2,0.8-1.8,1.3c-0.6,0.5-1.3,0.4-1.7-0.2c0.3-0.1,0.8-0.1,0.9-0.3c0.4-0.6,0.9-0.8,1.6-0.9
					C814.8,734.9,814.3,734.7,813.7,734.5L813.7,734.5z"/>
			</g>
			<g id="XMLID_1664_">
				<path id="XMLID_1665_" class="st10" d="M790.6,750.4c0.3-0.1,0.6-0.1,0.9-0.2c1.3-0.5,2.6-0.5,4-0.3c0.1,0,0.2,0.1,0.3,0.1
					c-0.6,1.2-1.5,2-3.3,2.8c-0.1-0.2-0.3-0.4-0.5-0.6c0.5-0.3,0.9-0.5,1.3-0.7c0.4-0.3,0.8-0.6,1.2-0.9c0-0.1-0.1-0.1-0.1-0.2
					c-0.5,0.1-1,0.1-1.4,0.2c-1.2,0.3-2.4,0.6-3.3,1.5c-0.2,0.2-0.3,0.5-0.3,0.7c0,0.4-0.1,0.7-0.6,0.7c-0.6-0.7-0.2-1.8,0.8-2.4
					C790,750.8,790.3,750.6,790.6,750.4C790.6,750.4,790.6,750.4,790.6,750.4"/>
			</g>
			<g id="XMLID_1662_">
				<path id="XMLID_1663_" class="st10" d="M825.1,734.4c-0.4,0.3-0.7,0.5-1.1,0.9c0.9-0.2,1.3,0.4,1.8,0.8c0.2,0.2,0.5,0.2,0.8,0.2
					c-0.3,0.6-1.3,0.8-2,0.2c-0.3-0.2-0.5-0.4-0.7-0.7c-0.2-0.3-0.5-0.3-0.8-0.1c-0.7,0.5-1.4,1-2,1.5c-0.3,0.3-0.6,0.5-1.1,0.2
					c0,0-0.1-0.1-0.1-0.1c0.3-0.3,0.7-0.7,1.1-1c0.5-0.4,1-0.7,1.5-1.1c0.1,0,0.1-0.1,0.1-0.2l0,0c0.2-0.2,0.2-0.4-0.1-0.6
					c-0.5-0.3-0.7-0.8-0.6-1.4c0.7,0.4,1.7,0.4,1.6,1.6C823.9,734.2,824.5,733.9,825.1,734.4L825.1,734.4z"/>
			</g>
			<g id="XMLID_1660_">
				<path id="XMLID_1661_" class="st10" d="M831,742.1c-0.2-0.3-0.4-0.6-0.7-0.9c-0.3-0.5-0.5-0.9-0.8-1.4c-0.5-0.7-1-1.4-1.6-2.2
					c0.2-0.1,0.4-0.2,0.7-0.4c0.3,0.4,0.7,0.7,1,1.1c0.2,0.3,0.4,0.7,0.7,1c0.2,0.3,0.3,0.5,0.5,0.8c0.1,0,0.1,0,0.2,0
					c0-0.5,0.1-1,0.1-1.5c0.9,0.3,1.3,1.2,0.9,2c-0.3,0.5-0.3,1,0.2,1.4c0.4,0.4,0.6,0.9,0.9,1.3c0,0.1,0,0.2,0,0.3l0,0
					C832.1,743.4,831.6,742.7,831,742.1"/>
			</g>
			<g id="XMLID_1658_">
				<path id="XMLID_1659_" class="st10" d="M849.5,754c-0.4-0.2-0.8-0.3-1.2-0.5c-1.4-0.7-2.9-1.2-4-2.3c-0.3-0.3-0.5-0.6-0.7-0.9
					c0-0.1,0.1-0.4,0.2-0.4c1.3-0.1,2.5-0.2,3.8,0.3c0.6,0.2,0.7,0.5,0.5,1l0,0c-0.2,0-0.5-0.1-0.7-0.1c-0.8-0.2-1.7-0.6-2.8-0.4
					c1,0.8,1.9,1.5,3.1,1.8l0,0c0.3,0.2,0.6,0.5,1,0.5C849.6,752.9,849.8,753.3,849.5,754L849.5,754z"/>
			</g>
			<g id="XMLID_1656_">
				<path id="XMLID_1657_" class="st10" d="M805.3,744.6c0.7-1,1.5-2,2.2-3c0.1-0.1,0.1-0.4,0-0.6c-0.6-1.4-0.3-1.7,0.8-2.4
					c0,0.6,0.1,1.2,0.1,1.8c0,1-0.2,1.9-0.9,2.7c-0.1,0.2-0.2,0.4-0.3,0.6l0,0c-0.1,0.1-0.2,0.1-0.3,0.2c-0.3,0.5-0.7,0.9-1.1,1.5
					c0.5-0.2,0.9-0.4,1.2-0.6c0.1,1-0.5,1.3-2.7,1.2C804.7,745.6,805,745.1,805.3,744.6L805.3,744.6"/>
			</g>
			<g id="XMLID_1654_">
				<path id="XMLID_1655_" class="st10" d="M817.6,735.6c-0.3,0.2-0.6,0.4-0.8,0.7c-0.6,0.7-1.1,1.3-1.7,2l0,0
					c-0.3-0.2-1-0.2-0.5-0.8c0.3-0.4,0.7-0.8,1.1-1.2c0.3-0.3,0.5-0.7,0.8-1l0,0c0.6-0.5,1.3-1,1.8-1.5c0.5-0.6,0.7-0.2,1.1,0.2
					c-0.4,0.3-0.9,0.6-1.4,0.8c0.1,0.1,0.1,0.2,0.2,0.3c1.1-0.4,2-0.1,2.9,0.5c-0.9,0.6-1.7,0.7-2.7,0.2
					C818.2,735.7,817.9,735.7,817.6,735.6L817.6,735.6z"/>
			</g>
			<g id="XMLID_1652_">
				<path id="XMLID_1653_" class="st10" d="M820.5,733.2c-0.2-0.2-0.3-0.4-0.5-0.6c1.2-0.9,2.6-1,3.9-0.1c1,0.6,1.8,1.4,2.7,2.2
					c0.5,0.4,0.8,1,1.3,1.5c-0.3,0.2-0.6,0.3-0.7,0.3c-0.7-0.7-1.4-1.4-2.2-2.1l0,0c-0.6-0.8-1.4-1.3-2.3-1.6
					c-0.3-0.1-0.8-0.1-1.2-0.1C821.3,732.8,820.9,733.1,820.5,733.2L820.5,733.2z"/>
			</g>
			<g id="XMLID_1650_">
				<path id="XMLID_1651_" class="st10" d="M830.4,743.6c0,0.1,0,0.3,0,0.3c-1,0.1-1.9,0.2-2.8,0.4c-0.2,0-0.4,0.2-0.4,0.3
					c0,0.2,0.1,0.4,0.2,0.5c0.3,0.2,0.6,0.4,1,0.4c0.5,0.1,0.6-0.2,0.4-0.6c-0.1-0.1-0.1-0.2-0.2-0.3c0-0.1,0-0.2-0.1-0.3h0.9
					c0.1,0.2,0.1,0.3,0.2,0.5c0.3,0.6,0,1.1-0.6,1.3c-1.1,0.4-2.4-0.1-2.7-1.3c-0.1-0.5,0.2-1,0.7-1.1c0.9-0.2,1.7-0.3,2.6-0.5
					C830,743.1,830.2,743.3,830.4,743.6C830.4,743.6,830.4,743.6,830.4,743.6"/>
			</g>
			<g id="XMLID_1648_">
				<path id="XMLID_1649_" class="st10" d="M822.5,735.1c-0.7,0.5-1,0.1-1.5-0.3c-0.9-0.8-1.9-1.6-3.2-2c-0.2-0.1-0.5-0.2-0.7-0.1
					c-0.6,0.3-1.2,0.7-1.9,1c-0.2,0.1-0.4,0.1-0.6,0.1c-0.2,0-0.3-0.2-0.5-0.3c0.4-0.3,0.9-0.6,1.3-0.8c1.3-0.8,2.6-0.8,3.9,0
					c0.4,0.3,0.9,0.5,1.3,0.7l0,0C821.1,733.8,821.8,734.5,822.5,735.1L822.5,735.1z"/>
			</g>
			<g id="XMLID_1646_">
				<path id="XMLID_1647_" class="st10" d="M830.4,739.4c-0.2-0.3-0.4-0.7-0.7-1c0-1,0.2-1.9,1.2-2.4c0.6-0.4,2.4,0,2.7,0.6
					c0.3,0.6-0.6,1.7-1.3,1.8c-0.3,0-0.5,0-0.8-0.1c-0.2,0-0.5-0.1-0.8-0.2c0.1-0.2,0.2-0.4,0.2-0.6c1.6,0.2,1.3,0.3,1.7-0.4
					c-0.8-0.7-1.7-0.5-2,0.4c-0.1,0.4-0.2,0.9-0.3,1.3C830.5,739,830.4,739.2,830.4,739.4"/>
			</g>
			<g id="XMLID_1644_">
				<path id="XMLID_1645_" class="st10" d="M815.2,738.3c1-0.5,2-0.5,3.1,0c-0.8,1.1-1.9,0.5-2.9,0.4c0.6,0.5,1.1,0.8,1.5,1.2
					c-0.2,0.2-0.3,0.4-0.4,0.6c-0.8-0.6-1.7-1.1-2.6-1.7l0,0c-0.5-0.3-0.9-0.7-1.5-0.9c-0.5-0.2-0.6-0.5-0.4-1l0,0
					c0.2,0.1,0.5,0.1,0.7,0.2c0.7,0.4,1.4,0.8,2.2,1.2C814.9,738.4,815.1,738.3,815.2,738.3L815.2,738.3z"/>
			</g>
			<g id="XMLID_1642_">
				<path id="XMLID_1643_" class="st10" d="M849.5,759.8c0,0.1,0,0.3-0.1,0.4c-1,1.1-1.9,2.2-1.8,3.8c0,0.4,0.2,0.9,0.4,1.3
					c0.3,0.6,0.3,0.9-0.4,1.3c-0.3-0.8-0.7-1.5-0.9-2.3c-0.2-1,0.2-1.9,0.7-2.7c0.3-0.6,0.8-1.1,1.2-1.7
					C848.9,759.4,849.2,759.4,849.5,759.8L849.5,759.8z"/>
			</g>
			<g id="XMLID_1640_">
				<path id="XMLID_1641_" class="st10" d="M808.7,736.9c0.4-0.2,0.9-0.2,1.3,0.2c-0.9,0.6-1.6,1.3-2.8,1.3c-0.9,0-1.2-0.5-1.5-1.4
					c-0.2-0.7,0.5-0.9,0.9-1.1c0.9-0.4,1.7-0.2,2.4,0.6C809,736.7,808.9,736.8,808.7,736.9c-0.6,0-1-0.7-1.7-0.2
					c-0.2,0.1-0.3,0.3-0.5,0.4c0.2,0.1,0.5,0.4,0.7,0.4C807.8,737.4,808.3,737.2,808.7,736.9"/>
			</g>
			<g id="XMLID_1638_">
				<path id="XMLID_1639_" class="st10" d="M809.2,741.9c0.7-0.2,1.3-0.3,1.9-0.5c0.1,0.5-0.5,1.1-1.2,1.2c-0.4,0-0.8-0.1-1,0.4
					c-0.1,0.1-0.5,0.1-0.7,0.1c0.2-1.6,0.4-3.2,0.6-4.9c0.1-0.1,0.4-0.2,0.7-0.4C809.9,739.2,809.3,740.5,809.2,741.9"/>
			</g>
			<g id="XMLID_1636_">
				<path id="XMLID_1637_" class="st10" d="M798.6,746.2v0.4c-0.6,0.3-0.9,0.1-1.1-0.4c-0.1-0.1-0.2-0.3-0.3-0.4l0,0
					c-0.2-0.7-0.4-1.5-0.6-2.2c-0.3-0.9-0.1-1.3,0.8-1.5c0,0.2-0.1,0.5,0,0.7c0.2,0.3-0.1,0.8,0.5,1c0.3,0.1,0.6,0.3,0.8,0.5
					c0.4,0.3,0.7,0.6,1,0.8c-0.9,0.3-1.5-0.1-1.9-0.9c-0.1,0-0.1,0.1-0.2,0.1C798.1,744.9,798.4,745.6,798.6,746.2L798.6,746.2z"/>
			</g>
			<g id="XMLID_1634_">
				<path id="XMLID_1635_" class="st10" d="M849.1,764c0.6,0.9,1,1.8,1.6,2.6c0.3,0.5,0.2,0.8-0.3,1c-1.1-1.4-2.1-2.9-2-4.9
					c0.8,0.3,1.6,0.5,2.5,0.8C850.7,763.8,850.7,763.8,849.1,764"/>
			</g>
			<g id="XMLID_1632_">
				<path id="XMLID_1633_" class="st10" d="M801.6,744.9c0.6-0.1,1.2-0.2,1.7-0.3c0.7-0.2,1.4-0.4,2.2-0.6c-0.1,0.3-0.1,0.5-0.2,0.6
					l0,0c-1,0.3-2,0.7-3,1c-1,0.3-2,0.5-3,0.7c-0.2,0-0.4,0-0.7-0.1l0,0c0-0.2,0-0.4-0.1-0.5C799.6,745.4,800.6,745.1,801.6,744.9
					L801.6,744.9z"/>
			</g>
			<g id="XMLID_1630_">
				<path id="XMLID_1631_" class="st10" d="M850.2,758.9c0.1,0.3,0.3,0.7,0.4,1c0.4,0.8,0.3,1.6,0,2.6c-0.7-0.2-1.5-0.5-2.3-0.7
					c0.3-0.3,0.4-0.5,0.6-0.7c0.3,0.1,0.6,0.2,1,0.4c0.1-0.7,0.1-1.2-0.4-1.7c0,0,0,0,0,0c-0.3-0.5-0.7-0.9-1.1-1.4
					c0.1-0.1,0.2-0.3,0.3-0.6C849.3,758.2,849.7,758.6,850.2,758.9C850.2,759,850.2,758.9,850.2,758.9"/>
			</g>
			<g id="XMLID_1628_">
				<path id="XMLID_1629_" class="st10" d="M830.4,734.2c0,0.5,0.1,1.1,0,1.6c0,0.4-0.3,0.6-0.8,0.5l0,0c0-0.3,0-0.5,0-0.8
					c0.1-0.8-0.6-1.7-1.5-1.6c-0.6,0-1.2,0.1-1.8,0.1c-0.2,0-0.5-0.2-0.7-0.4c0.1-0.1,0.3-0.3,0.4-0.3c0.9-0.2,1.9-0.5,2.8,0
					C829.5,733.5,829.9,733.9,830.4,734.2C830.4,734.3,830.4,734.2,830.4,734.2"/>
			</g>
			<g id="XMLID_1626_">
				<path id="XMLID_1627_" class="st10" d="M819.8,737.4c0,0,0.1,0.1,0.1,0.1c0.4,0.4,0.8,0.7,1.2,1.1l0,0c0.4,0.5,0.7,0.9,1.1,1.4
					l0,0c-0.2,0.1-0.4,0.3-0.6,0.4c-0.6-0.6-1.2-1.2-1.8-1.9c-0.2-0.2-0.4-0.3-0.7-0.5c0,0,0,0,0,0c-0.4-0.4-0.8-0.8-1.2-1.2
					c-0.2-0.2-0.5-0.4-0.8-0.6c0.2-0.3,0.3-0.5,0.5-0.8l0,0C818.3,736.2,819.1,736.8,819.8,737.4"/>
			</g>
			<g id="XMLID_1624_">
				<path id="XMLID_1625_" class="st10" d="M839.6,747.7c0.3-0.3,0.7-0.4,0.8-0.8c0-0.1,0.6-0.2,1-0.3c0,0.1,0.1,0.2,0.1,0.2
					c-0.6,0.6-0.5,1.3-0.5,2.1c0,0.3-0.2,0.5-0.4,0.8c-0.2,0.2-0.4,0.5-0.6,0.7c-0.7-1,0.4-1.6,0.6-2.3c-0.4,0.3-0.8,0.5-1.3,0.7
					c-0.5,0.2-0.9,0.3-1.1-0.4c-0.1-0.2-0.3-0.5-0.4-0.8c0.4,0.1,0.8,0.1,1.1,0.2C839.3,748.1,839.5,748,839.6,747.7
					C839.6,747.7,839.6,747.7,839.6,747.7"/>
			</g>
			<g id="XMLID_1622_">
				<path id="XMLID_1623_" class="st10" d="M800.6,747.4c0.1-0.2,0.3-0.4,0.3-0.6c0.1-0.5,0.4-0.8,1-0.7c0,0.2,0,0.3,0,0.5
					c0,0,0,0,0,0c-0.2,0.5-0.5,1.1-0.7,1.6c-0.4,1.1-0.8,1.3-1.9,0.6c-0.1,0-0.1,0-0.2-0.1c0,0.5,0.1,1,0.1,1.5c0,0-0.1,0-0.1,0
					c-0.2-0.3-0.6-0.6-0.7-1c-0.1-0.3,0-0.7,0-1.2c0.7,0.1,1.2,0.1,2,0.2C800.5,747.9,800.6,747.6,800.6,747.4L800.6,747.4"/>
			</g>
			<g id="XMLID_1620_">
				<path id="XMLID_1621_" class="st10" d="M788.1,757.1c-0.5-0.2-0.8-1.1-0.6-1.8c0.2-0.8,0.9-1.3,1.6-1.7c0.4-0.3,0.8-0.4,1.2-0.7
					c0.6-0.3,0.9-0.3,1.1,0.3c-0.7,0.4-1.5,0.8-2.2,1.3c-0.5,0.3-0.9,0.8-0.7,1.4C788.5,756.4,788.3,756.8,788.1,757.1L788.1,757.1z
					"/>
			</g>
			<g id="XMLID_1618_">
				<path id="XMLID_1619_" class="st10" d="M812,736.9c-0.3,0.4-0.7,0.8-1,1.2c-0.3,0.4-0.7,0.8-1.1,1.3c-0.1-0.7-0.2-1.2,0.3-1.7
					c0.8-0.9,1.6-1.8,2.3-2.8c0.3-0.4,0.7-0.6,1.2-0.5l0,0c0,0.2,0,0.4-0.2,0.6C813.1,735.7,812.5,736.3,812,736.9L812,736.9z"/>
			</g>
			<g id="XMLID_1616_">
				<path id="XMLID_1617_" class="st10" d="M851.5,768c0.8,0.9,0.9,1.9,0.3,2.6c-0.4,0.5-1,0.9-1.5,1.4c-0.2,0.1-0.3,0.3-0.4,0.5
					l0,0c-0.4,0.1-0.7,0.2-1.1,0.3V772c0.5-0.3,0.8-0.6,1.2-0.8l0,0c1.1-0.4,1.5-1.6,0.9-2.6c0.1-0.2,0.3-0.3,0.4-0.5
					C851.4,768.1,851.5,768.1,851.5,768"/>
			</g>
			<g id="XMLID_1614_">
				<path id="XMLID_1615_" class="st10" d="M851.5,768c-0.1,0-0.1,0.1-0.2,0.1c-0.4,0.3-0.9,0.6-1.3,0.9c-0.4-0.4-0.5-0.7,0.1-1.1
					c0.6-0.4,1-0.9,1.4-1.5c0.2-0.3,0.1-0.7,0.1-1.1c0-0.3-0.1-0.6-0.1-0.9c0.1,0,0.2-0.1,0.4-0.1c1.2,1.1,1,2.2-0.2,3.2
					C851.6,767.7,851.6,767.9,851.5,768"/>
			</g>
			<g id="XMLID_1612_">
				<path id="XMLID_1613_" class="st10" d="M833,743.6c1.2,0.4,2.3,0.8,3.5,1.1c0.6,0.1,0.7,0.4,0.6,0.9c-1.1-0.2-2.3-0.5-3.4-0.7
					l0,0c-0.7-0.2-1.3-0.4-2-0.6l0,0v-0.8C832.2,743.5,832.6,743.6,833,743.6L833,743.6z"/>
			</g>
			<g id="XMLID_1610_">
				<path id="XMLID_1611_" class="st10" d="M851.6,757.6c-0.2,0.3-0.5,0.6-0.7,0.9c-0.2,0.2-0.2,0.6-0.7,0.5c0,0,0,0,0,0
					c-0.1-0.2-0.1-0.4-0.2-0.7c0.7-1.1,1.6-2.3,0.5-3.8c0.1-0.1,0.3-0.3,0.4-0.5c0.2,0.2,0.4,0.3,0.6,0.5c0.5,0.6,0.5,1.3,0.2,2.1
					C851.7,757,851.6,757.3,851.6,757.6L851.6,757.6z"/>
			</g>
			<g id="XMLID_1608_">
				<path id="XMLID_1609_" class="st10" d="M846.2,754c0.3-0.3,0.5-0.6,0.8-0.9c0.7,0.2,0.7,0.3,0.3,0.9c-0.2,0.3-0.3,0.6-0.4,0.9
					l0,0c-0.4,0.7-0.3,1.3,0.3,1.8c0.3,0.2,0.4,0.5,0.4,0.8l0,0c-0.2,0.2-0.4,0.4-0.7,0c-0.3-0.4-0.7-0.8-0.9-1.2
					c-0.3-0.5-0.2-1.1,0-1.6C846.1,754.5,846.2,754.2,846.2,754L846.2,754"/>
			</g>
			<g id="XMLID_1606_">
				<path id="XMLID_1607_" class="st10" d="M849.5,754c0.6-0.8,0.9-1.2-0.2-2.5c0.1-0.2,0.2-0.3,0.3-0.5c0.9,0.2,1.6,1.4,1.2,2.3
					c-0.3,0.8-0.7,1.5-1,2.2c-0.3-0.1-0.6-0.2-0.8-0.2l0,0C849.2,754.9,849.4,754.4,849.5,754L849.5,754"/>
			</g>
			<g id="XMLID_1604_">
				<path id="XMLID_1605_" class="st10" d="M847.6,770c-0.2,0.1-0.4,0.1-0.6,0.2c-0.8-1.3,0-2.8,1.9-4.4c0.1,0.2,0.3,0.4,0.4,0.7
					C848.2,767.4,847.2,768.4,847.6,770L847.6,770z"/>
			</g>
			<g id="XMLID_1602_">
				<path id="XMLID_1603_" class="st10" d="M849,756.5c-0.2,0.4-0.3,0.9-0.5,1.3c-0.3,0.7-0.9,1.4-0.6,2.3c0.1,0.2-0.2,0.5-0.4,0.7
					c-0.8-0.8-0.7-1.3-0.4-2.3c0.1-0.4,0.3-0.7,0.4-1.1l0,0c0.3-0.4,0.6-0.8,0.9-1.2C848.7,756.4,848.8,756.4,849,756.5L849,756.5z"
					/>
			</g>
			<g id="XMLID_1600_">
				<path id="XMLID_1601_" class="st10" d="M847.6,770c0.2-0.2,0.5-0.3,0.7-0.5c0.2-0.2,0.5-0.3,0.7,0l0,0c-0.1,0.3-0.1,0.6-0.2,0.7
					c-1.2,0.7-1.8,1.8-2.4,2.8l0,0c-0.2,0-0.3,0-0.5,0.1c-0.1-0.9,0.3-1.6,0.9-2.2C846.9,770.6,847.3,770.3,847.6,770L847.6,770z"/>
			</g>
			<g id="XMLID_1598_">
				<path id="XMLID_1599_" class="st10" d="M848.9,769.5c-0.1-0.4-0.2-0.7-0.4-1c-0.3-0.5-0.3-0.9,0.4-1.3c0.4,0.9,0.8,1.8,1.2,2.7
					c0.2,0.4,0.3,0.9,0,1.3l0,0c-0.2,0-0.3,0-0.4,0C849.4,770.7,849.2,770.1,848.9,769.5L848.9,769.5z"/>
			</g>
			<g id="XMLID_1596_">
				<path id="XMLID_1597_" class="st10" d="M846.9,754.9c0.2-0.2,0.3-0.4,0.5-0.5c0.5,0.3,1.1,0.6,1.7,0.9l0,0
					c0.4,0.4,0.8,0.8,1.3,1.1c0.6,0.4,0.3,0.6,0,0.9c-0.4-0.3-0.9-0.5-1.3-0.8l0,0c-0.2-0.2-0.4-0.4-0.7-0.6
					C847.9,755.6,847.4,755.2,846.9,754.9L846.9,754.9z"/>
			</g>
			<g id="XMLID_1594_">
				<path id="XMLID_1595_" class="st10" d="M829.7,736.3c0,0.4,0.1,0.7,0.1,1.1c-0.1,0-0.1,0.1-0.2,0.1c-0.5-0.6-1.1-1.1-1.5-1.8
					c-0.2-0.2-0.2-0.6-0.1-0.8c0.2-0.2,0.6-0.4,0.9-0.5c0.2,0,0.4,0.4,0.7,0.6c-0.4,0-0.6,0.1-1,0.1
					C829,735.6,829.4,735.9,829.7,736.3L829.7,736.3"/>
			</g>
			<g id="XMLID_1592_">
				<path id="XMLID_1593_" class="st10" d="M836.4,747.6c0.2,0.1,0.3,0.3,0.5,0.4c0.3,0.3,0.7,0.4,0.8,0.9c0.1,0.4,0.7,0.7,1,1
					c-0.6,0.3-1.3,0.4-1.8-0.2c-0.2-0.2-0.4-0.6-0.5-0.9C836.3,748.5,836.4,748.1,836.4,747.6C836.4,747.6,836.4,747.6,836.4,747.6"
					/>
			</g>
			<g id="XMLID_1590_">
				<path id="XMLID_1591_" class="st10" d="M825.2,737.9c1-0.5,2-1,3-1.5c0.2,0.2,0.4,0.4,0.5,0.7c-0.8,0.4-1.7,0.8-2.5,1.2
					C825.8,738.4,825.7,738.4,825.2,737.9"/>
			</g>
			<g id="XMLID_1588_">
				<path id="XMLID_1589_" class="st10" d="M790.1,756.5c-0.2-0.3-0.3-0.7-0.5-1c-0.4-0.6-0.3-0.9,0.3-1.2c0.3,0.4,0.6,0.8,0.8,1.2
					l0,0c0.1,0.3,0.2,0.6,0.3,0.8c0.1,0.3,0.2,0.5,0.4,0.8c-0.2,0.1-0.4,0.1-0.6,0.2C790.5,757.1,790.3,756.8,790.1,756.5
					L790.1,756.5z"/>
			</g>
			<g id="XMLID_1586_">
				<path id="XMLID_1587_" class="st10" d="M807.2,743.7c0.6-0.2,1.1-0.4,1.7-0.5c0.4-0.1,0.9,0,1.4,0c-0.2,0.3-0.3,0.6-0.4,0.7
					c-0.7,0.2-1.4,0.3-2.1,0.4c0,0,0,0,0,0c-0.3,0-0.6,0-0.9,0C807,744.1,807.1,743.9,807.2,743.7
					C807.2,743.7,807.2,743.7,807.2,743.7"/>
			</g>
			<g id="XMLID_1584_">
				<path id="XMLID_1585_" class="st10" d="M790.5,751.7c0.3-0.1,0.5-0.2,0.8-0.3c0.6,0.8,1.1,1.5,1.6,2.3c-0.4,0.2-0.6,0.3-0.7,0.4
					C791.6,753.2,791,752.5,790.5,751.7"/>
			</g>
			<g id="XMLID_1582_">
				<path id="XMLID_1583_" class="st10" d="M808.7,735.1h0.9c0,0.8,0.7,1.1,1.5,1.2c-0.3,0.3-0.4,0.7-1,0.5
					C809.3,736.6,808.7,735.9,808.7,735.1"/>
			</g>
			<g id="XMLID_1580_">
				<path id="XMLID_1581_" class="st10" d="M798,778c-1.3-0.2-2.6-0.3-3.9-0.5c-1.1-0.2-2.1-0.4-3.2-0.7c-0.8-0.2-1.3-0.8-1.5-1.5
					c-0.4-1.1-0.6-2.2-0.9-3.5c-0.7-0.3-1.5-1.7-1.2-2.7c0.2-0.6,0.5-1.1,0.7-1.6l0,0c0,0,0.1-0.1,0.1-0.1c0.4-0.5,0.8-0.9,1.2-1.4
					c0.1,0.1,0.1,0.2,0.2,0.4c0,0.1,0.1,0.3,0.1,0.4c-0.4,0.7-0.9,1.3-1.3,2c-0.4,0.5-0.4,1.1-0.1,1.6c0.2,0.3,0.4,0.7,0.5,1
					c0.2-0.5,0.4-1.1,0.6-1.8c0.7,0.2,0.8,0.6,0.5,1.1c-0.1,0.1-0.1,0.3-0.1,0.4c-0.3,1.2-0.1,2.4,0.3,3.6c0.2,0.7,0.6,1.3,1.5,1.5
					c2.2,0.4,4.5,0.8,6.7,1.2C798.2,777.5,798.1,777.7,798,778L798,778z"/>
			</g>
			<g id="XMLID_1578_">
				<path id="XMLID_1579_" class="st10" d="M803.2,787.2c0.3,0.8,0.9,1.4,1.7,1.8c0.5,0.3,1.1,0.6,1.6,0.8c0.3,0.2,0.7,0.4,1,0.3
					c0.7,0,1.2,0.1,1.3,0.9c-1.5,0-2.9-0.4-4.2-1.2c-0.5-0.4-1.1-0.8-1.5-1.3c-0.4-0.5-0.8-1.1-1-1.8c-0.5-1.5-0.3-2.9,0.5-4.2
					c0.1-0.2,0.5-0.4,0.8-0.4c1.8-0.2,3.4,1.3,3.5,2.8c0.1,0.8-0.5,1.4-1.3,1.9C804.9,787.3,804.1,787.4,803.2,787.2
					c0-0.2,0.1-0.4,0.1-0.7c0.3,0,0.5,0,0.7,0c0.7,0,1.7-0.6,1.9-1.2c0.2-0.7-0.1-1.5-1.1-2.1c-1.2-0.7-1.4-0.5-1.9,0.7
					C802.6,785.1,802.8,786.1,803.2,787.2"/>
			</g>
			<g id="XMLID_1576_">
				<path id="XMLID_1577_" class="st10" d="M796.6,783.4c-0.1,0.1-0.2,0.2-0.2,0.2c-0.6-0.4-1.2-0.7-1.7-1.1c-0.6-0.6-1.2-1.3-1.6-2
					c-0.4-0.6-0.7-1.2-1.1-1.8c1.1-0.7,2.2-0.8,3.3-0.6c1,0.2,2.1,0.3,3.1,0.4c0.7,0.1,1.4,0.3,2.1,0.5c0.2,0.1,0.3,0.5,0.4,0.8
					c-2.6-0.4-5.1-1.1-8-0.8c0.5,0.7,0.8,1.4,1.3,2c0.6,0.7,1.4,1.2,2,1.8C796.5,783,796.6,783.2,796.6,783.4L796.6,783.4z"/>
			</g>
			<g id="XMLID_1574_">
				<path id="XMLID_1575_" class="st10" d="M796.6,783.5c0.2-1.3,0.4-2.6,0.6-4.1c0.4,0.1,0.7,0.1,1,0.2c-0.3,1.1-0.6,2-0.7,3
					c-0.1,0.5,0.3,1,0.5,1.5l0,0c0.3,0.4,0.5,0.9,0.9,1.2c0.7,0.4,1.6,0.8,2.4,1.1c0.5,0.2,0.7,0.4,0.7,0.9
					c-1.2-0.1-2.3-0.6-3.4-1.2C797.6,785.4,797.1,784.4,796.6,783.5C796.6,783.4,796.6,783.5,796.6,783.5"/>
			</g>
			<g id="XMLID_1572_">
				<path id="XMLID_1573_" class="st10" d="M816.5,789c-0.9,0.3-0.9-0.6-1.3-0.9c-0.3-0.3-0.6-0.6-0.9-0.9c-0.1-0.2-0.3-0.3-0.4-0.5
					c-0.4-0.6-0.8-1.1-1.2-1.7c-0.7-1-1.3-1.9-1.9-2.9c0.3,0,0.6-0.1,0.8-0.1c0.8,1.1,1.5,2.2,2.3,3.2c0.4,0.5,0.9,1,1.3,1.5
					c0,0.1,0,0.3,0.1,0.4c0.4,0.4,0.8,0.8,1.2,1.2C816.8,788.6,816.7,788.8,816.5,789L816.5,789z"/>
			</g>
			<g id="XMLID_1570_">
				<path id="XMLID_1571_" class="st10" d="M808.6,787.8c0.1-0.6,0.3-1.3,0.4-1.9c0.1,0,0.2,0.1,0.3,0.1l0,0
					c0.1,0.3,0.4,0.6,0.4,0.9c0.1,1.3-0.8,2.8-2.6,2.2c-1.2-0.3-1.5-0.7-1.1-1.7c0.2-0.7,1.3-1,2.1-0.7c0.2,0.1,0.3,0.1,0.6,0.2
					L808.6,787.8c-0.4-0.1-0.8-0.3-1.1-0.2c-0.3,0-0.6,0.3-0.8,0.5c0.1,0.1,0.2,0.3,0.3,0.3c0.3,0.1,0.6,0.2,0.9,0.1
					C808.2,788.4,808.7,788.3,808.6,787.8"/>
			</g>
			<g id="XMLID_1568_">
				<path id="XMLID_1569_" class="st10" d="M809.2,786c-0.3-0.4-0.5-0.9-0.8-1.3c-0.7-1-1.4-2-2.1-3h0.8l0,0
					c0.3,0.3,0.6,0.5,0.8,0.8c0.5,0.6,0.9,1.2,1.3,1.8l0,0c0,0.1,0,0.3,0.1,0.4c0.6,0.8,1.2,1.6,1.8,2.4c0.1,0.2,0.1,0.5,0.1,0.8
					l0,0c-0.8,0.2-0.9-0.5-1.3-0.9C809.7,786.6,809.4,786.3,809.2,786L809.2,786"/>
			</g>
			<g id="XMLID_1566_">
				<path id="XMLID_1567_" class="st10" d="M798,784.1c0-0.2,0-0.5-0.1-0.7c0.8,0.1,1.6,0,2.2-0.5c0.2-0.2,0.4-0.4,0.5-0.6
					c0.7-1.2,0.7-2.4,0.4-3.7h0.9c-0.2,1.4,0.4,2.8-0.5,4.1c-0.6,0.9-1.4,1.5-2.6,1.4C798.6,784.1,798.3,784.1,798,784.1L798,784.1z
					"/>
			</g>
			<g id="XMLID_1564_">
				<path id="XMLID_1565_" class="st10" d="M810.3,790.9c0.9,0.8,1.8,0.6,2.7,0.2c0.2,0.2,0.4,0.4,0.6,0.6c-1.1,0.8-3,0.7-4.1-0.3
					c-0.8-0.7-0.8-1.6-0.1-2.6c0.2,0.1,0.4,0.2,0.6,0.2l0,0c-0.1,0.2-0.2,0.4-0.1,0.6c0,0.3,0.1,0.5,0.2,0.7
					C810,790.5,810.2,790.7,810.3,790.9"/>
			</g>
			<g id="XMLID_1562_">
				<path id="XMLID_1563_" class="st10" d="M807.1,781.7c-1.4-0.4-2.8-0.8-4.1-1.2c-0.2-0.1-0.5-0.1-0.7-0.2v-0.8
					c0.9,0.2,1.7,0.4,2.5,0.6c0.7,0.2,1.3,0.4,2,0.6c0.6,0.1,1,0.4,1.1,0.9l0,0C807.6,781.6,807.4,781.6,807.1,781.7L807.1,781.7z"
					/>
			</g>
			<g id="XMLID_1560_">
				<path id="XMLID_1561_" class="st10" d="M814.5,790.9c-0.1-0.3-0.1-0.5,0.3-0.7c0.6-0.3,1.1-0.8,1.7-1.2l0,0
					c0.2-0.1,0.5-0.2,0.7-0.3c0.6-0.5,1.2-0.9,1.8-1.4c0.5,0.6,0.5,0.7-0.1,1.2c-0.5,0.4-0.9,0.8-1.4,1.2l0,0
					c-0.6,0.3-1.1,0.6-1.6,1C815.4,790.8,815,791.1,814.5,790.9L814.5,790.9z"/>
			</g>
			<g id="XMLID_1558_">
				<path id="XMLID_1559_" class="st10" d="M803.9,778.5c-0.3,0-0.7,0.1-1,0.1c-1.1-0.1-2.2-0.2-3.3-0.4c-0.1,0-0.2-0.1-0.3-0.2
					c0.2-0.2,0.4-0.4,0.5-0.6c0.8,0.1,1.6,0.1,2.4,0.3C802.9,777.8,803.8,777.5,803.9,778.5L803.9,778.5z"/>
			</g>
			<g id="XMLID_1556_">
				<path id="XMLID_1557_" class="st10" d="M799.8,777.3c-0.2,0.2-0.4,0.4-0.5,0.6c-0.1,0.1-0.2,0.2-0.4,0.3
					c-0.2,0.1-0.4,0.2-0.6,0.1c-0.2-0.1-0.2-0.3-0.3-0.5l0,0c0.4-0.4,0.9-0.9,1.3-1.3c0.4-0.5,1-0.7,1.5-0.4
					c0.3,0.1,0.5,0.7,0.8,1.2h-0.9c-0.1-0.2-0.2-0.3-0.3-0.6C800.2,777,800,777.2,799.8,777.3"/>
			</g>
			<g id="XMLID_1554_">
				<path id="XMLID_1555_" class="st10" d="M810.3,790.9c-0.1-0.2-0.3-0.3-0.4-0.5c0.1-0.1,0.1-0.2,0.2-0.2c0.6-0.3,0.6-0.4,0.1-0.9
					c-0.1-0.1-0.2-0.2-0.4-0.3l0,0c-0.4-0.6-0.4-0.6-0.1-1.1c0.2,0.1,0.4,0.2,0.7,0.3v0c0.2,0.4,0.5,0.7,0.7,1.1
					C811.7,790.3,811.4,790.7,810.3,790.9"/>
			</g>
			<g id="XMLID_1552_">
				<path id="XMLID_1553_" class="st10" d="M813.9,786.7c0.1,0.2,0.3,0.3,0.4,0.5c-0.8,0.4-1.5,0.8-2.3,1.2c-0.6,0.3-1,0.2-1.5-0.2
					v0c0.2-0.1,0.5-0.3,0.7-0.4l0,0c0.2-0.1,0.5-0.1,0.7-0.2C812.5,787.3,813.2,787,813.9,786.7"/>
			</g>
			<g id="XMLID_1550_">
				<path id="XMLID_1551_" class="st10" d="M842.2,784.2c0.1,0.1,0.2,0.2,0.1,0.3c-0.5,1-1.3,1.6-2.4,2.2c-1.1,0.5-2.2,0.7-3.3,0.8
					c-1.1,0-2.2,0-3.1-0.7c-0.7-0.5-1.2-1.5-0.9-2.3c0.5-1.2,1.7-2.3,3.3-2.2c0.5,0,0.8,0.2,1,0.7c0.4,0.9,0.7,1.8,0.6,2.8
					c-0.1,0.7-0.2,0.9-1.1,0.8c0.3-1,0.1-2-0.2-3c-0.1-0.4-0.6-0.6-1.2-0.4c-0.7,0.3-1.4,0.7-1.6,1.5c-0.3,0.8,0.1,1.6,1.3,1.9
					c1.3,0.3,2.6,0.3,3.9-0.2c1-0.4,1.9-0.8,2.6-1.6C841.5,784.4,841.9,784.3,842.2,784.2L842.2,784.2"/>
			</g>
			<g id="XMLID_1548_">
				<path id="XMLID_1549_" class="st10" d="M842.6,782.9c0.5-0.3,1.1-0.4,1.4-0.8c0.8-0.9,1.6-1.9,2.4-2.9c-1.6-0.5-2.9-0.1-4.2,0
					c-0.2-0.2-0.3-0.5-0.4-0.7c1.9-0.3,3.8-0.9,5.6,0.2c-0.6,1.5-1.4,2.9-2.7,3.9c-0.6,0.5-1.4,0.8-2.1,1.3
					c-0.1,0.1-0.2,0.2-0.4,0.2l0,0c-0.5,0-1-0.1-1.4,0c-1.3,0.1-2.2-0.5-2.8-1.5c-0.3-0.5-0.3-1-0.5-1.5c-0.1-0.2-0.1-0.4-0.1-0.6
					c0.3-0.1,0.5-0.1,0.9-0.2c0,1.3,0.3,2.4,1.6,2.9C840.8,783.6,841.8,783.5,842.6,782.9L842.6,782.9z"/>
			</g>
			<g id="XMLID_1546_">
				<path id="XMLID_1547_" class="st10" d="M849.9,772.5c0.2-0.1,0.4-0.1,0.7-0.2c0,1.2-0.2,2.3-0.9,3.4c-0.4,0.7-1,1-1.7,1.2
					c-1.6,0.4-3.3,0.8-4.9,1.1c-1.4,0.3-2.9,0.4-4.4,0.5c0.1-0.3,0.2-0.6,0.3-0.8c0.6-0.1,1.1-0.2,1.6-0.3l0,0c0.5,0,0.9,0,1.4-0.1
					c1.1-0.2,2.2-0.3,3.4-0.5c0.9-0.2,1.9-0.4,2.8-0.7c1.2-0.5,1.6-1.6,1.7-2.8C849.7,773,849.9,772.7,849.9,772.5L849.9,772.5z"/>
			</g>
			<g id="XMLID_1544_">
				<path id="XMLID_1545_" class="st10" d="M831.1,783.9c-0.1,0.8-0.3,1.7-0.4,2.5c0,0.3-0.2,0.5-0.2,0.8l0,0
					c-0.2,0-0.4,0.1-0.7,0.1c0-0.4-0.1-0.9-0.1-1.3c0.1,0.9-0.5,1.5-1.1,2.1c-0.1,0.1-0.2,0.4-0.3,0.5l0,0c-0.4,0.5-0.9,1-1.3,1.4
					c-0.3,0.3-0.6,0.6-0.9,0.9l0,0c-0.2-0.1-0.4-0.3-0.7-0.4c0.5-0.5,1-1,1.5-1.5c0.3-0.3,0.5-0.8,0.8-1.1c0.7-0.8,1.3-1.6,2.1-2.5
					c0.2-0.8,0.5-1.7,0.6-2.6c0.1-0.7,0.4-0.7,0.9-0.6C831.2,782.7,831.1,783.3,831.1,783.9L831.1,783.9z"/>
			</g>
			<g id="XMLID_1542_">
				<path id="XMLID_1543_" class="st10" d="M828.5,789c0.3,0.2,0.8,0.5,0.2,1c1.6,0.2,3,0.5,4.4-0.3c0.5-0.3,1-0.5,1.5-0.8
					c0.4-0.3,0.8-0.6,1.1-1c0.3-0.4,0.7-0.5,1.3-0.4c-0.4,0.5-0.6,0.9-1,1.3c-0.8,0.8-1.9,1.4-3,1.8c-1.2,0.4-2.4,0.6-3.6,0.2
					c-0.2-0.1-0.5,0-0.6-0.1c-0.3-0.2-0.7-0.4-0.8-0.7C827.9,789.7,828,789.2,828.5,789L828.5,789z"/>
			</g>
			<g id="XMLID_1540_">
				<path id="XMLID_1541_" class="st10" d="M830.4,787.2c0.2-0.1,0.5-0.1,0.7-0.2c0.6-0.3,1.2-0.4,1.7-0.1c0.5,0.3,0.9,0.9,0.8,1.5
					c0,0.2-0.2,0.6-0.4,0.6c-0.8,0.2-1.5,0.5-2.4,0.1c-0.4-0.2-0.6-0.3-0.5-0.7c0.3-0.1,0.5-0.1,0.9,0c0.5,0.1,1.1,0,1.6,0
					c0.1-0.1,0.2-0.3,0.2-0.4c-0.3-0.2-0.6-0.4-0.9-0.5c-0.4-0.1-1.6,0.6-1.8,1c-0.4-0.1-0.8-0.1-1.3-0.2
					C829.6,787.8,830,787.5,830.4,787.2C830.4,787.1,830.4,787.2,830.4,787.2"/>
			</g>
			<g id="XMLID_1538_">
				<path id="XMLID_1539_" class="st10" d="M826.1,790.8c0.8,0.6,1.7,0.7,2.7,0.3c0.3-0.1,0.7,0,1.2,0.1c-0.7,0.5-1.2,0.9-2,0.9
					c-0.9,0-1.7-0.1-2.5-0.5c-0.1-0.1-0.3-0.1-0.5-0.1l0,0c-0.7-0.4-1.5-0.9-2.2-1.3c0.1-0.2,0.2-0.4,0.2-0.5
					c0.2,0.1,0.5,0.1,0.7,0.2C824.6,790.1,825.4,790.5,826.1,790.8L826.1,790.8z"/>
			</g>
			<g id="XMLID_1536_">
				<path id="XMLID_1537_" class="st10" d="M837.8,779.2c0.6-0.1,1.3-0.2,1.9-0.4c0.6-0.1,1-0.1,1.2,0.4c0,0,0,0,0,0
					c-0.5,0.2-1,0.4-1.5,0.5c-0.3,0.1-0.7,0.1-1,0.2c-1.3,0.3-2.6,0.7-3.8,1c-0.1,0-0.3,0-0.5,0c0.1-0.3,0.2-0.5,0.4-0.7l0,0
					c0.3-0.1,0.6-0.3,0.9-0.4C836.1,779.7,836.9,779.4,837.8,779.2L837.8,779.2z"/>
			</g>
			<g id="XMLID_1534_">
				<path id="XMLID_1535_" class="st10" d="M834.4,780.3c-0.4,0.5-0.9,1-1.3,1.5c-0.6,0.9-1.2,1.8-2,2.7v-0.7l0,0
					c0.3-0.6,0.6-1.2,0.9-1.9c0.1-0.3,0.3-0.6,0.5-0.9l0,0c0.3-0.4,0.6-0.7,0.9-1.1c0.4-0.4,0.5-1.2,1.5-0.8
					C834.6,779.6,834.5,780,834.4,780.3L834.4,780.3z"/>
			</g>
			<g id="XMLID_1532_">
				<path id="XMLID_1533_" class="st10" d="M842.6,782.9c-0.2,0-0.5,0.1-0.7,0.1c-0.3-1.3-0.2-2.6-1.1-3.7c0,0,0,0,0,0
					c0-0.2-0.1-0.5-0.1-0.8c0.2-0.1,0.5-0.1,0.9-0.2c0.4,1.3,0.8,2.6,1.1,4C842.8,782.4,842.7,782.7,842.6,782.9L842.6,782.9"/>
			</g>
			<g id="XMLID_1530_">
				<path id="XMLID_1531_" class="st10" d="M840.6,777.4c-0.5-0.1-1-0.2-1.6-0.3c-0.2,0.5-0.4,1.2-0.7,1.8c-0.1,0.2-0.3,0.3-0.5,0.4
					l0,0c-0.1-0.1-0.3-0.2-0.3-0.3c0.3-0.9,0.5-1.7,0.8-2.6c0-0.1,0.3-0.1,0.4-0.2c0.9-0.1,1.4,0.5,2,1
					C840.7,777.2,840.6,777.3,840.6,777.4L840.6,777.4z"/>
			</g>
			<g id="XMLID_1528_">
				<path id="XMLID_1529_" class="st10" d="M824.4,787.2c0.1,0.1,0.3,0.2,0.4,0.4c-0.5,0.5-1.1,1.1-1.6,1.6
					c-0.1,0.1-0.1,0.3-0.2,0.5c-0.3,0.2-0.7,0.5-1,0.7c-0.3,0.3-0.7,0.5-0.9,0.8c-0.4,0.6-0.8,0.5-1.3,0.1c1-1,2-1.9,3-2.9
					c0.3-0.3,0.5-0.7,0.8-1C823.9,787.2,824.2,787.2,824.4,787.2"/>
			</g>
			<g id="XMLID_1526_">
				<path id="XMLID_1527_" class="st10" d="M827.8,787.8c-0.2,0.1-0.4,0.3-0.7,0.5c-0.6-0.3-1.3-0.6-2-0.9c-0.2-0.1-0.4-0.1-0.7-0.2
					c-0.7-0.4-1.4-0.8-2.1-1.2c-0.1-0.1-0.2-0.1-0.3-0.2c0.1-0.2,0.3-0.5,0.4-0.7c1,0.5,2.1,1,3.1,1.5l0,0c0.6,0.3,1.3,0.6,1.9,1
					C827.5,787.6,827.6,787.7,827.8,787.8"/>
			</g>
			<g id="XMLID_1524_">
				<path id="XMLID_1525_" class="st10" d="M817.8,785.3c0.8-0.2,0.9,0.6,1.3,0.8c0.2,0.1,0.4,0.3,0.7,0.4c0.4,0.4,0.7,0.8,1.2,1.2
					c0.4,0.4,0.9,0.7,1.4,1c-0.2,0.2-0.4,0.3-0.7,0.6c-1.2-1-2.4-2.1-3.6-3.2C817.8,785.9,817.5,785.7,817.8,785.3"/>
			</g>
			<g id="XMLID_1522_">
				<path id="XMLID_1523_" class="st10" d="M815.2,786.7c-0.1-0.2-0.2-0.4-0.2-0.6c1.2-0.8,2.5-1.6,3.8-2.5c0.1,0.1,0.3,0.3,0.5,0.6
					c-0.4,0.3-0.8,0.6-1.2,0.9c-0.1,0.1-0.1,0.2-0.2,0.3c-0.5,0.3-1,0.5-1.5,0.8C816,786.3,815.6,786.5,815.2,786.7"/>
			</g>
			<g id="XMLID_1520_">
				<path id="XMLID_1521_" class="st10" d="M790.9,773.1c-0.1-0.1-0.2-0.2-0.4-0.3c-0.5-0.2-0.8-0.5-0.5-1.1
					c0.9,0.3,1.8,0.7,2.9,1.1c-0.2-0.6-0.4-1-0.5-1.4c-0.1,0-0.1,0-0.2,0c0.2-0.2,0.3-0.5,0.5-0.7c1.6,1.2,1.2,3.6-0.6,4.8
					c-0.1,0.1-0.4,0.2-0.5,0.1c-0.6-0.3-1.2-1.9-0.9-2.5C790.6,773.1,790.8,773.1,790.9,773.1c0.2,0.2,0.4,0.3,0.5,0.6
					c0.1,0.4,0.2,0.7,0.3,1.1c0.1,0,0.1,0,0.2,0c0.3-0.5,0.6-1,0.9-1.5c-0.1,0-0.1-0.1-0.2-0.1c-0.1,0.2-0.2,0.3-0.2,0.3
					C791.9,773.4,791.4,773.2,790.9,773.1"/>
			</g>
			<g id="XMLID_1518_">
				<path id="XMLID_1519_" class="st10" d="M791.5,761.5c0.2-0.1,0.3-0.1,0.5-0.2c0.5,0.9,1,1.9,0.8,3c-0.1,0.3-0.1,0.6-0.3,0.9
					c-0.3,0.6-0.7,1.2-1,1.8c-0.1,0.1,0,0.3,0,0.4l0,0c-0.3,0.4-0.6,0.9-0.9,1.3c-0.1,0-0.3-0.1-0.5-0.2l0,0
					c-0.2-0.6,0.3-1.1,0.5-1.6c0.4-0.9,1-1.8,1.3-2.7c0.2-0.5-0.1-1.2-0.3-1.7C791.4,762.2,791.3,761.8,791.5,761.5
					C791.5,761.5,791.5,761.5,791.5,761.5"/>
			</g>
			<g id="XMLID_1516_">
				<path id="XMLID_1517_" class="st10" d="M790.7,760.8c0.6-0.2,0.9-0.8,0.8-1.6c-0.1-0.3-0.1-0.6-0.1-0.9c0.2,0,0.4-0.1,0.6-0.1
					c0.6,1.1,0.8,1.8-0.5,3.2c0,0,0,0,0,0c-0.7,0.3-1.5,0.6-2.2,0.9c-0.1,0.1-0.3,0-0.5,0.1c-0.2-1-0.3-2,0.2-3
					c1,0.5,0.2,1.3,0.5,1.9C790,761.4,790.4,761.1,790.7,760.8"/>
			</g>
			<g id="XMLID_1514_">
				<path id="XMLID_1515_" class="st10" d="M791.4,757.1c0.5-0.1,1.3-0.7,1.3-1.2c0-0.5,0-1,0.5-1.3c0.5,0.7,0.4,1.8-0.2,2.4
					c-0.5,0.5-1.1,0.9-1.6,1.3c-0.2,0.1-0.4,0.1-0.5,0.2c-0.5,0.6-0.8,0.4-1-0.3c0.4-0.3,0.8-0.5,1.2-0.8
					C791.2,757.4,791.3,757.3,791.4,757.1"/>
			</g>
			<g id="XMLID_1512_">
				<path id="XMLID_1513_" class="st10" d="M791.4,767.4c0.1-0.2,0.2-0.3,0.4-0.5c0.7,0.7,1.2,1.5,0.9,2.5c-0.3,0.9-0.6,1.8-0.9,2.8
					c-0.3-0.2-0.6-0.3-0.8-0.4c0.1-0.4,0.3-0.8,0.4-1.2l0,0c0.1-0.2,0.2-0.4,0.3-0.6c0.4-0.7,0.5-1.4-0.2-2
					C791.4,767.9,791.4,767.6,791.4,767.4L791.4,767.4z"/>
			</g>
			<g id="XMLID_1510_">
				<path id="XMLID_1511_" class="st10" d="M788.7,757.9c0.2,0,0.4,0,0.5,0.1c0.6,0.7,1.2,1.5,1.8,2.2c-0.1,0.2-0.2,0.4-0.3,0.6
					c-0.7-0.6-1.4-1.3-1.9-1.9C788.6,758.7,788.7,758.2,788.7,757.9"/>
			</g>
			<g id="XMLID_1508_">
				<path id="XMLID_1509_" class="st10" d="M791.4,770.6c-0.4-0.2-0.7-0.5-1.1-0.7c-0.4-0.3-0.7-0.6-1.1-0.9
					c-0.6-0.4-0.6-0.7-0.1-1.1c0.3,0.2,0.6,0.4,0.9,0.6l0,0c0.1,0.1,0.2,0.2,0.2,0.3C790.8,769.3,791.8,769.6,791.4,770.6
					L791.4,770.6z"/>
			</g>
			<g id="XMLID_1506_">
				<path id="XMLID_1507_" class="st10" d="M789.4,766c-0.3-0.4-0.7-0.7-1-1.1c0.1-0.1,0.2-0.2,0.4-0.4c0.2,0.1,0.5,0.2,0.7,0.4
					c0.3,0.2,0.5,0.6,0.8,0.7c0.8,0.3,0.4,0.7,0.2,1.1C790.1,766.4,789.7,766.2,789.4,766"/>
			</g>
			<g id="XMLID_1504_">
				<path id="XMLID_1505_" class="st10" d="M825.5,786.6c-0.2-0.1-0.3-0.3-0.6-0.5c0.3-0.4,0.6-0.8,0.9-1.2c0.7-1.1,1.5-2.1,2.2-3.2
					c0.3-0.5,0.5-1,0.8-1.5c0.2-0.4,0-0.5-0.4-0.5c-0.6,0-1.1,0.2-1.3,0.8c0.3,0.2,0.7,0.4,1.1,0.6c-0.2,0.2-0.5,0.5-0.6,0.5
					c-0.4-0.2-0.9-0.4-1.1-0.7c-0.2-0.5-0.1-1,0.4-1.5c0.8-0.6,1.5-0.7,2.2-0.3c0.6,0.3,0.8,0.8,0.5,1.4c-0.8,1.7-1.8,3.2-3,4.7
					C826.3,785.7,825.9,786.1,825.5,786.6C825.5,786.6,825.5,786.6,825.5,786.6"/>
			</g>
			<g id="XMLID_1502_">
				<path id="XMLID_1503_" class="st10" d="M846.2,774.3c0.5-0.4,0.9,0,1.3,0.3c0.7-0.6,0.6-1.3,0.2-2c-0.4-0.9-0.4-1,0.3-1.5
					c0.3,0.6,0.5,1.1,0.8,1.7c0.1,0.9-0.1,1.8-0.7,2.5c-0.4,0.5-0.9,0.5-1.3,0C846.7,774.9,846.5,774.6,846.2,774.3"/>
			</g>
			<g id="XMLID_1500_">
				<path id="XMLID_1501_" class="st10" d="M832.4,781.1c-0.9,0.9-2.1,0.7-3.3,0.8c0.1-0.3,0.3-0.6,0.4-0.8c1-0.1,2-0.2,2.9-0.3
					C832.4,780.9,832.4,781,832.4,781.1L832.4,781.1"/>
			</g>
			<g id="XMLID_1498_">
				<path id="XMLID_1499_" class="st10" d="M818.6,776.7c0.4-0.4,0.8-0.8,1.3-1.2c0.9,0.6,1.4,1.4,1.9,2.2c0.6,1.1,0.4,2.3-0.1,3.4
					c-0.3,0.8-1,1.4-1.5,2.1c0,0-0.3-0.1-0.5-0.1l0,0c-0.3-0.3-0.1-0.6,0.1-0.9c1-1,1.5-2.1,1.3-3.4c-0.1-0.9-0.6-1.7-1.4-2.3
					c-0.3,0.5-0.5,1-0.7,1.4c-0.5,0.8-0.8,1.6,0.1,2.2c0.3-0.4,0.4-0.7,0.2-1.2c-0.2-0.3-0.2-0.7-0.3-1.1c0.2-0.1,0.4-0.3,0.6-0.4
					c0.2,0.3,0.3,0.7,0.5,1c0.5,1,0.5,1.4-0.3,2.3c-0.4,0.4-0.7,0.4-1.2,0c-1.1-0.9-1-1.9-0.5-2.9c0.1-0.3,0.2-0.6,0.3-0.9
					C818.5,776.9,818.6,776.8,818.6,776.7"/>
			</g>
			<g id="XMLID_1496_">
				<path id="XMLID_1497_" class="st10" d="M818.6,776.7c0,0.1-0.1,0.2-0.1,0.3c-0.2-0.1-0.5-0.1-0.7-0.2c-0.8,0.8-1,1.8-0.8,2.9
					c0.2,1,0.8,1.8,1.5,2.5c0.4,0.4,0.9,0.7,1.3,1l0,0c0.4,0.3,0.8,0.6,1.1,1c0.2,0.2,0.3,0.4,0.5,0.7l0,0c-0.1,0.1-0.3,0.2-0.6,0.4
					c-1.1-1-2.4-1.9-3.5-3.1c-0.8-0.8-1.4-1.9-1.4-3.1c0-1.1,0.5-2,1.2-2.8c0.1-0.1,0.1-0.1,0.2-0.2c0.2-0.2,0.4-0.3,0.6-0.5
					C818.2,775.9,818.8,776.2,818.6,776.7"/>
			</g>
			<g id="XMLID_1494_">
				<path id="XMLID_1495_" class="st10" d="M809.1,781h1.8c0.2,0,0.3,0,0.5,0c0.3-0.1,0.7-0.3,1-0.5c0,0-0.1-0.4-0.2-0.5
					c-0.4-0.2-0.8-0.2-1.2-0.3c0,0-0.2,0.2-0.2,0.3c0.1,0.3,0.2,0.5,0.3,0.8c0,0.1-0.1,0.1-0.1,0.2c-0.3-0.1-0.8-0.2-0.9-0.4
					c-0.4-0.6-0.1-1.2,0.3-1.6c0.8-0.7,2.6,0.2,2.9,1.1c0.2,0.6-0.2,1.2-0.9,1.4c-0.7,0.2-1.4,0.3-2.2,0.4
					C809.4,782,809,781.8,809.1,781"/>
			</g>
		</g>
	</g>
</g>
</svg>
